<?xml version="1.0" encoding="utf-8"?>
<!-- Generator: Adobe Illustrator 15.0.2, SVG Export Plug-In . SVG Version: 6.00 Build 0)  -->
<!DOCTYPE svg PUBLIC "-//W3C//DTD SVG 1.1//EN" "http://www.w3.org/Graphics/SVG/1.1/DTD/svg11.dtd">
<svg version="1.1" id="Layer_1" xmlns="http://www.w3.org/2000/svg" xmlns:xlink="http://www.w3.org/1999/xlink" x="0px" y="0px"
	 width="677px" height="677px" viewBox="0 0 677 677" enable-background="new 0 0 677 677" xml:space="preserve">
<g>
	<path fill-rule="evenodd" clip-rule="evenodd" d="M469.023,204.451c3.166,2.411,4.113,9.305,2.107,13.578
		C469.495,214.362,469.077,209.576,469.023,204.451z"/>
	<path fill-rule="evenodd" clip-rule="evenodd" fill="#FFFFFF" d="M482.717,226.757c3.739,3.071,2.601,14.86,1.055,6.788
		C483.322,231.204,482.351,231.172,482.717,226.757z"/>
	<path fill-rule="evenodd" clip-rule="evenodd" d="M447.958,231.606c-1.732,2.763-5.716-0.467-7.374-0.97
		C442.191,226.275,444.851,231.622,447.958,231.606z"/>
	<path fill-rule="evenodd" clip-rule="evenodd" d="M455.33,237.424c0.326-1.316,2.641-0.804,4.215-0.97
		c-0.784,2.985,2.89,1.864,2.108,4.85C458.83,240.666,457.646,238.525,455.33,237.424z"/>
	<path fill-rule="evenodd" clip-rule="evenodd" fill="#FFFFFF" d="M282.581,257.79c-0.16,2.413-3.568,0.283-4.214,0
		c-1.8-0.042-2.728,0.72-3.16,1.939C272.346,256.548,280.798,255.017,282.581,257.79z"/>
	<path fill-rule="evenodd" clip-rule="evenodd" fill="#FFFFFF" d="M315.236,280.095c4.437,1.734,5.862,6.239,7.373,10.668
		c-4.343,1.685-9.017-6.411-12.64-5.819C311.004,282.665,315.241,283.334,315.236,280.095z"/>
	<path fill-rule="evenodd" clip-rule="evenodd" fill="#FFFFFF" d="M318.394,292.702c-1.122,2.634-0.668,4.542,2.106,5.819
		c-14.498-0.022-33.707-6.017-45.293-7.759c-2.956-0.415,2.639,3.616-1.054,3.879c-3.001-0.469-3.023-3.683-4.212-5.818
		c1.792,0.356,1.987-0.757,2.105-1.94c3.308,1.097,2.783-0.278,5.268,0.97c0.172-1.127-0.232-1.726-1.054-1.939
		C288.923,283.836,305.471,283.01,318.394,292.702z"/>
	<path fill-rule="evenodd" clip-rule="evenodd" fill="#FFFFFF" d="M298.379,300.461c2.981,0.166,7.228-0.834,7.375,1.939
		c-0.182,3.064-4.167,2.63-7.375,2.909C298.379,303.692,298.379,302.077,298.379,300.461z"/>
	<path fill-rule="evenodd" clip-rule="evenodd" fill="#FFFFFF" d="M535.387,301.431c-0.194,0.825,0.411,0.915,1.052,0.97
		c0,0.645,0,1.292,0,1.939c-3.083-0.253-3.235,2.192-6.32,1.939c-0.193-0.824,0.412-0.915,1.055-0.969
		c-0.896-1.438-2.651-2.085-5.27-1.939C527.612,299.405,532.552,305.557,535.387,301.431z"/>
	<path fill-rule="evenodd" clip-rule="evenodd" fill="#FFFFFF" d="M544.866,304.34c2.279-1.718,6.989,2.573,12.64,0.97
		C556.619,308.388,547.375,305.85,544.866,304.34z"/>
	<path fill-rule="evenodd" clip-rule="evenodd" d="M97.189,305.31c1.985,8.5,1.417,16.444,2.107,24.246
		C96.667,323.759,94.729,312.607,97.189,305.31z"/>
	<path fill-rule="evenodd" clip-rule="evenodd" fill="#FFFFFF" d="M361.581,315.978c3.683,0.197,11.342,5.883,13.694,0.969
		c3.565-0.373,1.657,4.293,6.32,2.91c-1.009,2.951-6.296,1.964-5.267,6.788c-2.107,0-4.215,0-6.318,0
		C378.502,322.292,363.117,320.21,361.581,315.978z"/>
	<path fill-rule="evenodd" clip-rule="evenodd" fill="#FFFFFF" d="M109.83,316.947c2.144,0.937,2.275,3.726,2.107,6.789
		C108.923,323.601,110.01,319.691,109.83,316.947z"/>
	<path fill-rule="evenodd" clip-rule="evenodd" fill="#FFFFFF" d="M393.182,319.857c-0.817,0.861-1.133,2.19-1.052,3.879
		C385.695,323.954,389.044,316.732,393.182,319.857z"/>
	<path fill-rule="evenodd" clip-rule="evenodd" fill="#FFFFFF" d="M599.64,349.92c6.688,26.673,3.876,58.881-21.065,74.674
		c-5.547,3.51-10.165,8.632-14.748,8.727c-2.857,0.061-2.963-4.521-5.267-4.848c-7.077-1.005-11.062,14.226,2.106,14.546
		c9.175,0.224,26.442-15.912,33.71-21.333c-5.356,12.854-15.001,30.152-30.55,36.851c-1.935-1.371,1.65-4.71-1.052-6.791
		c0.188,10.105-13.559,28.439-27.388,32.976c-12.963,4.252-33.395-6.174-25.282-19.397c-5.021-6.143,1.126-11.308,6.321-13.578
		c1.656-6.136-1.232-10.685,1.053-16.485c11.196-4.561,19.675-11.626,30.548-16.485c0.809-5.581,2.241-11.779,2.107-15.518
		c6.399,0.388,12.982-8.019,11.586-14.546c3.07-0.205,5.226-3.803,7.373-1.939c2.575-9.14-0.466-13.85-3.159-20.366
		c2.489-4.496,9.174-5.131,8.427-12.606C583.124,350.344,591.44,346.594,599.64,349.92z M542.76,441.08
		c3.088-0.064,3.912-2.218,5.267-3.88C544.005,436.409,543.945,439.266,542.76,441.08z"/>
	<path fill-rule="evenodd" clip-rule="evenodd" fill="#FFFFFF" d="M555.398,354.769c-1.727,3.324-3.521,0.571-7.372,1.939
		c0.893,1.442,3.392,1.402,5.268,1.939c-0.549,1.436-1.56,2.444-2.105,3.88c-3.231-3.102-4.559,2.493-9.484,3.879
		c1.716-3.836-0.235-4.895,1.056-9.698C545.894,355.905,548.892,351.796,555.398,354.769z"/>
	<path fill-rule="evenodd" clip-rule="evenodd" d="M437.423,372.226c2.286,2.811,0.161,8.044-5.267,6.788
		C433.097,376,433.241,372.253,437.423,372.226z"/>
	<path fill-rule="evenodd" clip-rule="evenodd" fill="#FFFFFF" d="M528.012,373.196c1.781,4.194,3.886,0.899,6.32,2.91
		c16.562,13.657-3.818,36.102-14.745,44.609c-4.284,0.064-5.09-3.073-9.482-2.908c4.78-12.243,7.335-22.234,8.428-33.942
		C522.335,384.469,524.436,375.946,528.012,373.196z"/>
	<path fill-rule="evenodd" clip-rule="evenodd" d="M459.545,383.864c1.291,1.84,2.609,6.207,1.054,7.757
		C456.897,391.091,458.906,385.996,459.545,383.864z"/>
	<path fill-rule="evenodd" clip-rule="evenodd" d="M212.006,437.2c1.656-0.735,1.574-3.075,4.213-2.907
		c-0.73,0.781-1.639,2.654,0,2.907C215.269,440.447,213.863,438.047,212.006,437.2z"/>
	<path fill-rule="evenodd" clip-rule="evenodd" d="M548.026,437.2c-1.354,1.662-2.179,3.815-5.267,3.88
		C543.945,439.266,544.005,436.409,548.026,437.2z"/>
	<path fill-rule="evenodd" clip-rule="evenodd" d="M416.356,441.08c2.625,0.614,4.526,4.447,3.159,5.819
		C417.833,445.54,416.826,443.558,416.356,441.08z"/>
	<path fill-rule="evenodd" clip-rule="evenodd" fill="#FFFFFF" d="M169.872,473.083c4.88,0.077,0.229,4.396,1.054,6.791
		C168.569,479.456,170.498,475.094,169.872,473.083z"/>
	<path fill-rule="evenodd" clip-rule="evenodd" d="M371.062,476.963c1.408,0.969,2.069,2.62,4.214,2.911
		c-1.213,1.146-1.191,3.427-1.054,5.815C371.387,483.881,368.858,480.72,371.062,476.963z"/>
	<path fill-rule="evenodd" clip-rule="evenodd" d="M334.194,477.935c3.579,1.124,3.99,6.237,8.429,3.876
		c-0.571,3.437,3.729,2.386,3.159,5.819c-2.187-0.571-3.592-1.866-4.213-3.88c-0.646,1.348-4.057,0.146-4.214,1.939
		C334.099,483.164,332.07,481.713,334.194,477.935z"/>
	<path fill-rule="evenodd" clip-rule="evenodd" d="M376.329,486.661c2.147,1.359-1.035,3.342,1.054,5.819
		c-3.195,0.354-2.185-3.159-3.161-4.851C375.448,487.788,376.096,487.416,376.329,486.661z"/>
	<path fill-rule="evenodd" clip-rule="evenodd" fill="#FFFFFF" d="M414.252,487.63c1.494,1.854,3.251,3.47,5.264,4.851
		c-0.44,1.854-0.382,4.172-3.159,3.879C417.533,491.723,413.075,492.267,414.252,487.63z"/>
	<path fill-rule="evenodd" clip-rule="evenodd" fill="#FFFFFF" d="M405.822,495.389c1.562,0.824,2.267,2.439,2.107,4.851
		c-2.936-0.363-6.412,3.692-8.426,0.968C400.382,498.138,405.567,499.029,405.822,495.389z"/>
	<path fill-rule="evenodd" clip-rule="evenodd" d="M377.382,500.239c4.011,1.054,2.627,3.959,1.055,6.787
		C376.082,506.607,378.008,502.246,377.382,500.239z"/>
	<path fill-rule="evenodd" clip-rule="evenodd" fill="#FFFFFF" d="M402.662,503.146c0.488,5.443,7.958,12.164,0,14.547
		c-2.334-3.898,0.835-11.205-4.21-12.606C398.702,503.383,400.262,502.875,402.662,503.146z"/>
	<path fill-rule="evenodd" clip-rule="evenodd" d="M354.209,507.026c2.467,0.315,1.022,4.231,3.159,4.848
		C355.283,514.966,353.271,509.922,354.209,507.026z"/>
	<path fill-rule="evenodd" clip-rule="evenodd" fill="#FFFFFF" d="M407.93,509.934c0.377-2.99,5.368,2.555,6.322-0.968
		c1.56,0.825,2.262,2.441,2.104,4.849c-3.274-0.04-7.343,4.169-7.373-0.969c1.518,1.084,2.569,1.045,3.159-0.972
		C411.192,510.783,409.787,511.935,407.93,509.934z"/>
	<path fill-rule="evenodd" clip-rule="evenodd" fill="#FFFFFF" d="M343.674,509.934c3.646-0.723,1.54,7.206,4.213,1.94
		c2.921,2.129-3.336,3.977-3.159,6.79c-0.85-0.671-2.884-1.509-3.16,0C337.787,515.43,345.711,514.775,343.674,509.934z"/>
	<path fill-rule="evenodd" clip-rule="evenodd" d="M368.955,512.846c3.394-0.63,3.394,10.327,0,9.698
		C370.07,518.594,368.66,517.95,368.955,512.846z"/>
	<path fill-rule="evenodd" clip-rule="evenodd" fill="#FFFFFF" d="M347.887,514.785c1.547,1.809,4.228,2.572,4.215,5.819
		c-2.833,1.729-2.036-4.273-3.161-0.972C346.659,519.798,348.464,516.193,347.887,514.785z"/>
	<path fill-rule="evenodd" clip-rule="evenodd" fill="#FFFFFF" d="M341.569,519.633c1.404,0,2.807,0,4.213,0
		c0.444,2.027-0.722,2.569-1.054,3.88C343.187,522.669,341.39,522.061,341.569,519.633z"/>
	<path fill-rule="evenodd" clip-rule="evenodd" d="M305.754,530.303c0.25,4.179,2.275,9.351,3.16,14.546
		C306.033,542.06,303.322,534.849,305.754,530.303z"/>
	<path fill-rule="evenodd" clip-rule="evenodd" fill="#FFFFFF" d="M166.711,557.455c-0.78-3.302,3.882-1.598,4.214-3.879
		c1.429,0.299,0.874,2.429,1.053,3.879C168.736,556.776,169.954,556.776,166.711,557.455z"/>
	<path fill-rule="evenodd" clip-rule="evenodd" fill="#FFFFFF" d="M326.822,563.274c0.92-3.754-4.6-1.585-3.161-5.819
		c2.01,0.412,1.906,2.771,5.268,1.94c-1.387,5.092-1.642,5.372-1.054,11.637c-2.247,0.453-2.005-1.386-2.107-2.91
		c-2.988-1.665-5.914-4.463-4.213-7.756C324.861,559.905,324.338,562.975,326.822,563.274z"/>
	<path fill-rule="evenodd" clip-rule="evenodd" d="M289.953,561.334c3.597,0.893,3.267,5.401,4.214,8.728
		C291.499,568.317,290.591,564.951,289.953,561.334z"/>
	<path fill-rule="evenodd" clip-rule="evenodd" d="M269.941,569.094c1.005,0.506,3.495,4.35,4.212,1.938
		c1.415,0.64,1.961,2.075,2.107,3.881c-1.8,0.204-2.728-1.656-3.16,0C271.766,573.229,269.54,572.37,269.941,569.094z"/>
	<path fill-rule="evenodd" clip-rule="evenodd" fill="#FFFFFF" d="M334.194,572.001c1.845,3.858,5.439,0.11,6.321,4.851
		c-2.14-1.686-4.888,1.95-6.321,3.881c-1.948-0.147-0.646-3.284-2.105-3.881C331.926,574.438,333.743,573.85,334.194,572.001z"/>
	<path fill-rule="evenodd" clip-rule="evenodd" fill="#FFFFFF" d="M283.635,578.792c4.445,1.909,1.702,4.41,4.212,7.759
		C284.555,585.16,281.536,582.449,283.635,578.792z"/>
	<path fill-rule="evenodd" clip-rule="evenodd" fill="#FFFFFF" d="M283.635,587.519c4.663-1.06,5.237,1.645,8.425,1.94
		c-1.974,1.848-0.115,2.438,0,4.847C289.549,591.771,284.397,591.664,283.635,587.519z"/>
	<path fill-rule="evenodd" clip-rule="evenodd" d="M269.941,592.369c-3.777,1.897,1.086,5.725-4.213,5.816
		c-0.577-1.408,1.23-5.01-1.054-4.848C265.402,590.299,267.483,592.073,269.941,592.369z"/>
	<path fill-rule="evenodd" clip-rule="evenodd" fill="#FFFFFF" d="M377.382,728.139c0.388,2.941-3.431,2.014-5.269,2.91
		C371.963,728.322,374.698,728.251,377.382,728.139z"/>
	<path fill-rule="evenodd" clip-rule="evenodd" fill="#FFFFFF" d="M416.356,806.691c5.206,9.955-8.118,23.279-14.747,13.578
		c3.232-4.209,4.542-5.465,3.16-12.606C407.956,809.887,410.435,804.981,416.356,806.691z"/>
	<path fill-rule="evenodd" clip-rule="evenodd" fill="#FFFFFF" d="M308.915,99.714c12.366,5.633,28.457-2.821,41.081,4.849
		c2.581-0.106,0.225-3.208-1.054-2.91c1.49-1.621,5.788,2.375,8.427,2.91c0.133,1.739-1.289,2.045-1.052,3.878
		c6.222-4.489,11.573,2.603,16.851,6.789c2.793-1.402-3.864-2.167-2.105-5.818c4.776-1.867,8.038,0.547,12.64-0.97
		c-0.457,1.193-1.346,1.992-3.159,1.939c2.368,3.046,6.17-0.709,6.321-2.909c6.311,2.124,6.708-3.487,12.641-0.969
		c0.322,2.236-3.045,1.077-3.16,2.909c2.095,2.49,4.822-2.607,9.479-0.97c-0.23,3.123,1.863,4.104,1.054,7.759
		c1.521-1.186,1.596-3.702,3.162-4.849c4.076-0.843,3.747,2.369,6.318,2.91c-0.729,2.421-2.81-1.799-5.267-0.97
		c4.756,6.174,17.287,9.099,26.333,5.819c2.127,0.768-4.552,4.509-5.267,2.909c-0.795,4.611,2.656,5.313,4.214,7.758
		c3.898-2.42-4.005-2.042-2.106-5.819c2.093,0.014,1.338,2.646,4.213,1.939c0.873,3.48-2.372,4.692,0,6.789
		c4.009,1.426,0.206-4.335,4.214-2.909c-2.243,9.31,9.259,11.388,11.588,19.396c0.591,2.191,1.64-1.176,3.161,0.97
		c1.278,7.755-1.662,16.159,4.214,26.185c-1.795,0.357-1.989-0.756-2.108-1.939c-1.432,0.3-0.876,2.427-1.054,3.878
		c2.918,3.131,8.637,3.687,9.481,8.729c0.779-3.712-7.998-19.058-4.216-14.548c3.393,8.849,7.521,12.593,10.532,20.366
		c-2.901-1.854-5.522-3.964-8.425-5.818c6.292,6.492,12.579,12.986,15.801,22.305c-1.562-0.504-2.654-1.435-4.212-1.94
		c4.271-1.291-4.975-11.11-9.48-13.577c6.33,12.842,11.441,27.776,12.639,42.67c-9.896-9.639-12.742-25.767-18.958-38.792
		c-3.074,1.658,2.384,3.53,1.049,6.788c-2.772-0.676-2.225-4.415-5.263-4.849c5.901,11.054,10.332,23.458,16.85,33.943
		c-3.403-1.714-3.303-6.654-7.373-7.758c1.126,0.906,0.329,3.578,3.161,2.91c-0.461,1.193-1.347,1.992-3.161,1.939
		c0.454,1.847,2.271,2.436,2.107,4.849c-2.145-1.947-2.064,0.429-4.213,0.97c3.803,4.478,2.45,7.946,6.32,11.638
		c-5.29-2.811-18.293-10.166-24.229-12.608c-0.18,2.428,1.619,3.036,3.163,3.879c-0.772,1.727-1.917,0.141-3.163,0
		c2.455,4.854,8.167,6.708,10.537,11.638c-8.371,1.951-11.271-13.843-18.963-12.607c-1.971-2.064-1.719-6.176-4.213-7.758
		c-2.181,4.537,7.34,9.174,3.159,13.578c8.927,3.418,1.514,21.881,13.693,22.304c-2.723,4.728,3.718,6.046,6.323,8.729
		c1.515-0.544,2.57-1.513,3.159-2.91c-0.797,4.539,6.641,5.748,8.425,10.667c-10.201,3.045-33.304-3.231-50.559-5.819
		c-27.347-4.1-54.626-7.225-76.896-10.668c-2.343,0.729-0.141,16.828-2.108,8.729c-0.556-0.78-1.096-1.575-1.052-2.91
		c-3.122-3.27-7.175-5.678-13.693-5.819c0.324-1.316,2.636-0.804,4.213-0.969c-1.949-2.962-5.006,1.119-8.429,0
		c0.235-4.309-7.709-3.067-14.746-2.91c-1.146-3.147-5.154-3.659-7.375-5.819c-6.743,6.538-9.057-4.476-18.958-4.849
		c2.324,4.311-2.955,0.803-8.428,2.91c-0.386,1.65,0.822,1.83,2.107,1.939c-0.693,2.904-2.25-0.928-4.213,0
		c0.354-4.198,6.149-3.39,6.32-7.759c-2.31-2.993-5.458,1.365-5.266,3.88c-2.966-1.527-8.211,1.737-11.588,2.91
		c2.427,0.194,4.947,0.194,7.375,0c2.275,1.229-3.777,2.912-5.268,3.879c-0.139-4.093-5.987,0.967-8.426,0.97
		c0.325,3.842,3.658-1.085,3.159,2.909c-27.219-0.917-48.719,22.698-82.161,17.457c-6.246-0.979-7.4-3.972-12.64-3.879
		c-0.325-2.286-3.658-1.804-3.16-4.849c-4.267-0.442-4.849,3.735-7.375,0c-0.191-3.719,0.863-0.353,3.162-0.97
		c1.832-4.921-4.572-2.256-4.215-5.819c-2.906,0.557-3.696,3.061-7.372,2.909c0.029-0.943,1.288-0.753,2.106-0.97
		c2.765-19.394,12.195-41.163,15.801-64.006c6.351-40.253,32.235-75.785,60.041-96.01c4.576-3.329,17.853-9.307,25.28-4.848
		c1.564-0.422-0.415-1.241,0-2.91c4.487-2.032,8.413,1.537,11.587,0c-0.269-2.014-4.627-0.265-5.266-1.94
		c0.864-3.404,7.617,3.359,7.373-1.94c10.494,3.5,12.976,2.722,24.228,5.819c1.008-3.514-4.548-0.987-5.267-2.91
		c6.3-3.647,12.518,5.653,20.015,0.97C293.189,102.388,308.477,101.421,308.915,99.714z M464.811,218.999
		c-2.703-8.187-8.271-18.883-15.8-19.396C456.466,203.414,460.96,215.098,464.811,218.999z M471.131,218.029
		c2.006-4.273,1.059-11.167-2.107-13.578C469.077,209.576,469.495,214.362,471.131,218.029z M445.853,238.394
		c-5.959-3.365-5.372-9.274-9.482-12.607C434.476,230.357,442.802,238.431,445.853,238.394z M440.584,230.636
		c1.658,0.503,5.642,3.733,7.374,0.97C444.851,231.622,442.191,226.275,440.584,230.636z M461.653,241.304
		c0.781-2.985-2.893-1.864-2.108-4.85c-1.574,0.166-3.889-0.347-4.215,0.97C457.646,238.525,458.83,240.666,461.653,241.304z"/>
	<g>
		<path fill-rule="evenodd" clip-rule="evenodd" d="M-134.547-70c336.708,0,673.464,0,1010.167,0c0,310.331,0,620.668,0,931
			c-337.071,0-674.149,0-1011.222,0c0-309.364,0-618.731,0-928.09C-135.692-68.467-135.776-69.836-134.547-70z M297.329,99.714
			c-7.497,4.683-13.714-4.617-20.015-0.97c0.719,1.923,6.275-0.604,5.267,2.91c-11.252-3.097-13.734-2.319-24.228-5.819
			c0.245,5.299-6.509-1.464-7.373,1.94c0.639,1.675,4.997-0.074,5.266,1.94c-3.174,1.537-7.101-2.032-11.587,0
			c-0.415,1.668,1.564,2.487,0,2.91c-7.428-4.459-20.704,1.52-25.28,4.848c-27.806,20.226-53.69,55.757-60.041,96.01
			c-3.606,22.843-13.036,44.612-15.801,64.006c-0.818,0.217-2.077,0.027-2.106,0.97c3.676,0.151,4.466-2.352,7.372-2.909
			c-0.357,3.563,6.047,0.897,4.215,5.819c-2.298,0.617-3.353-2.75-3.162,0.97c2.526,3.735,3.108-0.442,7.375,0
			c-0.499,3.044,2.834,2.563,3.16,4.849c5.24-0.093,6.394,2.9,12.64,3.879c33.442,5.241,54.942-18.374,82.161-17.457
			c0.499-3.994-2.834,0.933-3.159-2.909c2.439-0.002,8.287-5.062,8.426-0.97c1.49-0.967,7.543-2.65,5.268-3.879
			c-2.428,0.194-4.947,0.194-7.375,0c3.377-1.173,8.622-4.437,11.588-2.91c-0.192-2.515,2.956-6.873,5.266-3.88
			c-0.171,4.369-5.966,3.561-6.32,7.759c1.963-0.928,3.52,2.904,4.213,0c-1.285-0.11-2.493-0.29-2.107-1.939
			c5.473-2.107,10.752,1.401,8.428-2.91c9.901,0.374,12.216,11.387,18.958,4.849c2.221,2.16,6.229,2.671,7.375,5.819
			c7.037-0.157,14.981-1.399,14.746,2.91c3.423,1.119,6.48-2.962,8.429,0c-1.577,0.165-3.889-0.347-4.213,0.969
			c6.518,0.142,10.571,2.55,13.693,5.819c-0.044,1.335,0.496,2.129,1.052,2.91c1.967,8.099-0.235-8,2.108-8.729
			c22.27,3.443,49.549,6.568,76.896,10.668c17.255,2.588,40.357,8.864,50.559,5.819c-1.784-4.92-9.222-6.128-8.425-10.667
			c-0.589,1.396-1.645,2.366-3.159,2.91c-2.605-2.683-9.046-4.001-6.323-8.729c-12.18-0.423-4.767-18.886-13.693-22.304
			c4.181-4.404-5.34-9.041-3.159-13.578c2.494,1.583,2.242,5.694,4.213,7.758c7.692-1.236,10.592,14.558,18.963,12.607
			c-2.37-4.93-8.082-6.785-10.537-11.638c1.246,0.141,2.391,1.727,3.163,0c-1.544-0.843-3.343-1.451-3.163-3.879
			c5.936,2.442,18.938,9.797,24.229,12.608c-3.87-3.692-2.518-7.16-6.32-11.638c2.148-0.541,2.068-2.917,4.213-0.97
			c0.163-2.413-1.653-3.002-2.107-4.849c1.814,0.052,2.7-0.746,3.161-1.939c-2.832,0.668-2.035-2.004-3.161-2.91
			c4.07,1.104,3.97,6.044,7.373,7.758c-6.518-10.484-10.948-22.889-16.85-33.943c3.038,0.434,2.49,4.173,5.263,4.849
			c1.335-3.258-4.123-5.13-1.049-6.788c6.216,13.024,9.062,29.153,18.958,38.792c-1.197-14.894-6.309-29.829-12.639-42.67
			c4.506,2.466,13.752,12.286,9.48,13.577c1.558,0.505,2.65,1.436,4.212,1.94c-3.222-9.318-9.509-15.812-15.801-22.305
			c2.902,1.854,5.523,3.964,8.425,5.818c-3.011-7.773-7.14-11.517-10.532-20.366c-3.782-4.51,4.995,10.836,4.216,14.548
			c-0.845-5.042-6.563-5.598-9.481-8.729c0.178-1.451-0.378-3.579,1.054-3.878c0.119,1.183,0.313,2.296,2.108,1.939
			c-5.876-10.026-2.936-18.43-4.214-26.185c-1.521-2.146-2.57,1.221-3.161-0.97c-2.329-8.008-13.831-10.086-11.588-19.396
			c-4.008-1.426-0.205,4.335-4.214,2.909c-2.372-2.097,0.873-3.308,0-6.789c-2.875,0.707-2.12-1.926-4.213-1.939
			c-1.898,3.777,6.005,3.399,2.106,5.819c-1.558-2.445-5.009-3.147-4.214-7.758c0.715,1.6,7.394-2.142,5.267-2.909
			c-9.046,3.28-21.577,0.355-26.333-5.819c2.457-0.829,4.538,3.392,5.267,0.97c-2.571-0.541-2.242-3.752-6.318-2.91
			c-1.566,1.147-1.641,3.664-3.162,4.849c0.81-3.655-1.284-4.636-1.054-7.759c-4.656-1.637-7.384,3.46-9.479,0.97
			c0.115-1.832,3.482-0.673,3.16-2.909c-5.933-2.518-6.331,3.093-12.641,0.969c-0.151,2.2-3.953,5.956-6.321,2.909
			c1.813,0.052,2.703-0.746,3.159-1.939c-4.602,1.517-7.863-0.897-12.64,0.97c-1.758,3.651,4.898,4.417,2.105,5.818
			c-5.277-4.186-10.629-11.277-16.851-6.789c-0.237-1.833,1.185-2.139,1.052-3.878c-2.639-0.535-6.937-4.53-8.427-2.91
			c1.278-0.298,3.634,2.803,1.054,2.91c-12.624-7.67-28.714,0.784-41.081-4.849C308.477,101.421,293.189,102.388,297.329,99.714z
			 M481.665,142.385c1.049,1.051,2.282,4.263,4.214,2.909C480.182,138.529,475.335,136.04,481.665,142.385z M486.932,223.847
			c-2.104-0.713-1.853-8.553-4.215-5.818C484.772,218.788,483.864,227.229,486.932,223.847z M483.771,233.545
			c1.546,8.072,2.685-3.717-1.055-6.788C482.351,231.172,483.322,231.204,483.771,233.545z M275.207,259.729
			c0.432-1.219,1.36-1.982,3.16-1.939c0.646,0.283,4.054,2.413,4.214,0C280.798,255.017,272.346,256.548,275.207,259.729z
			 M232.019,279.125c-3.692,1.431-3.355,1.363,0,0.97c21.519-2.523,46.394-9.067,71.628-3.878c2.714,0.466,7.611,3.91,9.481,1.939
			C292.259,270.03,248.016,272.928,232.019,279.125z M303.647,281.065c-1.48-0.253-1.199-2.127-2.105-2.91
			c-1.532,0.531-5.445-1.132-5.267,0.97C298.55,279.368,302.825,282.688,303.647,281.065z M309.968,284.944
			c3.623-0.592,8.297,7.504,12.64,5.819c-1.51-4.429-2.936-8.934-7.373-10.668C315.241,283.334,311.004,282.665,309.968,284.944z
			 M276.26,285.914c0.821,0.214,1.226,0.812,1.054,1.939c-2.484-1.248-1.959,0.127-5.268-0.97c-0.118,1.183-0.314,2.296-2.105,1.94
			c1.189,2.135,1.211,5.349,4.212,5.818c3.693-0.263-1.902-4.294,1.054-3.879c11.586,1.742,30.795,7.737,45.293,7.759
			c-2.774-1.277-3.228-3.185-2.106-5.819C305.471,283.01,288.923,283.836,276.26,285.914z M208.846,307.249
			c1.348,11.594,9.862,32.869,21.067,41.7c7.677,6.051,24.887,7.673,38.975,6.791c31.718-1.991,59.322-10.444,52.667-43.642
			c-9.161,2.416-16.593,1.048-26.333,1.939c-4.031-3.328-3.354-10.77-2.106-16.486c-13.007-3.791-21.66,4.551-25.281,12.607
			c-1.856-6.239-6.807,4.882-9.481,0.97c0.742-8.185,13.966-12.535,9.481-19.397c-3.141,11.848-15.655,9.604-24.228,15.517
			c-0.575-3.673-2.548-6.059-2.107-10.668c-12.418-3.135-26.443,2.509-24.227,15.517c-11.68-5.568-5.169-23.347,0-27.154
			C209.03,289.316,207.815,298.379,208.846,307.249z M91.924,305.31c-0.277,38.372,6.209,72.864,50.56,62.067
			c-10.83,13.996-23.602,53.466,9.48,53.338c1.212-3.867,9.639-8.116,10.534-3.879c8.474-0.01,10.93-6.347,17.906-7.759
			c14.638-2.961,29.377,4.103,43.188,6.79c17.625,3.427,15.818-5.37,24.227-12.609c-0.29,3.824,4.503,2.967,4.214,6.79
			c1.287,11.317-28.406,26.145-29.494,12.606c-8.802-3.381-27.466-0.854-31.601,12.606c0.816,0.217,2.078,0.027,2.107,0.972
			c3.949,0.079,3.866-3.553,7.373-3.88c-3.33,4.638,5.159-1.356,5.268,0.969c-1.12,2.887-8.689,4.882-5.268,8.729
			c1.201-2.416,6.634-4.716,7.374-1.939c1.68-0.718-0.241-4.746,3.16-3.879c0.42,3.036-5.323,5.354-3.16,6.787
			c4.834-2.337,9.167-5.138,13.693-7.759c0.536,1.928-5.812,2.221-2.107,3.88c1.795-3.672,1.734,2.107,3.161,1.939
			c1.057-1.289,0.997-3.607,3.159-3.88c-0.876,1.757,2.193,6.583,4.214,8.73c-3.877,2.001-0.485,6.269,1.054,8.728
			c1.806-2.218,1.001-6.837,3.16-8.728c-0.834,2.199,1.171,6.491,2.107,3.879c-0.535-0.986-1.514-4.483,1.054-5.818
			c3.259,1.14-0.165,2.435,2.107,3.879c0.309-0.864,2.85-4.245,3.159-1.939c1.158,3.095-6.212,3.207-2.107,5.815
			c1.273-3.029,3.512-5.168,7.374-5.815c-3.15,8.333,2.493,6.21,2.107,12.606c1.608-2.456,1.827-5.498,2.107-6.791
			c3.742,3.669,3.985,10.558,9.479,12.61c0.004-1.732-2.837-5.642,0-6.791c-0.141,3.688,1.504,5.728,4.214,6.791
			c0.458-4.411,1.806-5.113,2.106-7.759c1.525,2.428,2.551,3.809,1.053,6.787c5.575,2.19,4.086,5.36,5.266,8.73
			c2.341-3.354,0.263-6.369,3.161-7.759c0.408,3.354,4.282,6.351,6.321,2.907c-1.519-2.145-2.573,1.223-3.162-0.968
			c1.03-0.993,2.082-1.964,3.162-2.911c0.513,3.983,1.145,14.764,4.212,17.457c1.908-6.582-5.368-10.657-1.054-13.578
			c-0.047,4.246,3.01,5.633,5.267,7.759c-2.371,0.92-1.963,3.132,0,4.852c0.101-1.524-0.141-3.363,2.106-2.911
			c1.287,3.662,1.512,8.306,6.321,8.727c-4.223-4.197-3.644-9.829-7.373-12.606c5.68,0.59,3.682,8.248,9.479,8.728
			c-1.397-3.559-2.893-7.032-5.265-9.695c2.579-1.289-1.158-3.61,1.051-3.88c7.625,9.793,9.439,27.29,12.643,43.639
			c1.991,0.22,2.324-1.091,4.213-0.968c-1.81,1.242-0.021,5.798-3.162,5.818c-0.029-3.204-4.445-2.373-5.266-4.851
			c1.164,3.021,0.679,3.467-2.107,1.94c-0.484,3.436-2.343,5.602-2.107,9.698c-4.64-1.06-11.795-2.429-8.426-7.76
			c-3.744-1.505-0.635,3.296-3.159,2.911c1.161-5.596-4.134-5.248-3.161-10.667c-3.312,1.11-2.559-1.524-4.212-1.938
			c0.294,2.207-0.254,3.644-2.108,3.875c-0.045-1.334,0.495-2.129,1.054-2.907c-3.22-0.699-3.841,0.992-6.321,0.971
			c-3.993-5.986-9.269-6.045-17.907-4.851c-3.542-0.467-4.699-4.565-8.426-2.907c0.982,1.032,3.885,0.299,3.16,2.907
			c-1.45-0.043-2.313,0.459-3.16,0.972c-8.703-12.423-36.65-2.31-46.348,0c-9.786-5.284-19.521,1.32-29.494,4.848
			c-0.855,4.384-3.611,7.021-8.429,7.759c0.64,1.675,4.997-0.075,5.269,1.939c-6.801,1.36-0.742,6.451-5.269,9.698
			c-4.248-2.013,1.479-4.697-1.052-6.79c-0.488,3.107-4.011,3.422-4.213,6.79c1.005,1.66,3.496,1.952,4.213,3.88
			c-2.372-0.454-3.249,5.26-1.054,5.816c-0.297-2.535,0.386-4.169,3.161-3.877c1.775,3.235-0.668,3.309-1.055,6.788
			c3.169-0.979,1.868,2.159,2.108,3.879c2.636-0.123,3.298-1.852,4.213,0.968c-5.252,0.746-2.64,7.82-4.213,8.73
			c2.626-1.783,3.999-4.722,7.373-5.818c-1.183-0.205-1.64-1.079-2.106-1.94c4.254,1.329,3.729-1.737,5.267-2.91
			c1.029,0.993,2.082,1.964,3.159,2.91c-1.007-1.808,3.155-3.24,0-3.879c-0.235,0.751-0.028,1.912-1.054,1.939
			c-1.233-3.247-4.229-8.266,1.054-9.698c-1.451,1.249-1.042,4.213-1.054,6.787c4.56,1.234,4.848-6.451,7.374-3.879
			c-0.769,1.631-4.376,5.564-2.106,6.79c1.95-4.347,5.861-6.888,10.533-8.727c0.055,1.777-5.398,3.28-2.107,4.848
			c2.897-4.445,8.497-6.403,13.694-8.728c-1.375,2.813-0.855,5.577,2.106,6.788c1.207-3.052-1.653-2.358-2.106-3.88
			c3.543-0.675,3.452,1.994,5.266,2.908c0.685,3.54-0.709,5.164-2.106,6.79c5.062-2.742,3.05,4.17,0,5.819
			c1.799,3.824,8.118-0.413,5.267-2.911c0.767,1.585-2.092,4.219-2.107,1.94c4.471-3.317,3.918-11.264,8.427-14.547
			c-2.089,5.743,3.633,11.525,0,12.606c-0.237-0.751-0.029-1.913-1.054-1.94c-0.119,1.186-0.315,2.298-2.107,1.94
			c5.192,4.664-2.162,6.21-3.16,10.67c4.451-0.428,5.556-3.938,8.427-5.819c-0.427,2.838-2.753,3.928-4.213,5.819
			c5.67,2.742-5.05,8.376,2.107,10.667c-2.896,0.889-5.111,2.407-7.374,3.879c1.576,0.165,3.888-0.348,4.213,0.969
			c-4.446,1.401-2.886,8.335-6.32,10.67c1.812,0.382,2.701-1.442,3.161,0c-1.392,0.01-0.963,1.698-2.107,1.939
			c-0.89-2.093-5.43-0.819-6.32-2.911c-0.158-1.292,4.282-2.927,1.053-3.879c-1.594,1.371-3.327,4.709-1.053,6.79
			c-4.685,0.853-3.721,0.87-2.106,3.88c-3.666-0.456-6.431,5.73-6.32,7.755c2.287-0.804,2.344-3.659,5.267-3.88
			c-3.072,1.699-2.302,6.936-7.374,6.791c-0.516,3.061,1.899,3.425,1.053,6.788c-1.711-0.291-2.841,1.311-1.053,1.938
			c2.511-1.566,5.668-2.537,7.374-4.847c3.142,1.157,3.582,0.266,6.32-0.972c-1.369,1.292-0.647,2.926,1.054,3.88
			c2.106-3.181,5.291-3.873,5.267-6.788c5.044-0.935-0.55,4.356,2.106,3.88c1.804-0.926,2.122-3.22,4.214-3.88
			c0.072,4.529,2.408-1.137,4.213-0.972c-2.417,2.139,0.26,3.873,3.161,3.88c0.576-1.408-1.231-5.013,1.053-4.848
			c4.091,0.721,1.312,0.122,3.161,2.908c0.826-1.271,1.912-7.166,4.214-3.88c-0.585-0.003-1.196,0.788,0,0.972
			c0.07-1.625,1.259-8.693,4.213-6.788c-2.501,6.327-4.422,12.417-3.161,18.427c1.578-1.458,1.885-4.085,4.213-4.852
			c-1.732,1.506-0.45,4.527,1.054,5.819c-0.158-2.407,0.544-4.022,2.107-4.849c3.383,2.38,2.989,8.239,6.32,10.668
			c5.155-5.945-4.866-13.991,4.213-15.518c0.18,1.45-0.376,3.58,1.053,3.879c1.587-1.448,0.315-5.529,4.214-4.848
			c0.902,2.261-3.684,4.179-1.053,4.848c1.913-4.703,7.201-6.299,11.586-8.728c0.059,1.24,1.35,1.345,1.054,2.908
			c-5.472-1.435-3.078,6.439-1.054,6.79c2.078-0.675-0.259-5.411,2.107-5.818c1.244,2.565,0.912,3.013,4.213,1.939
			c0.679-4.181-4.416-3.045-4.213-6.79c3.79,2.907-0.479-6.577,4.213-0.968c1.063-6.482-4.72-1.614-5.266-2.909
			c-0.158-2.409,0.544-4.026,2.107-4.851c1.862,1.803,3.074-0.421,5.267-0.968c0.241-4.426-1.773-6.775-3.16-9.699
			c1.575,1.879,6.042,2.951,6.319-0.971c-3.494,0.568-7.624-3.235-5.267-4.849c0.542,6.339,7.62,0.69,7.374,7.76
			c4.949,1.021-1.73-3.271,2.106-3.879c0.372,2.688,3.156,5.709,5.268,3.879c0.444-4.812-3.156-0.55-4.213-2.911
			c3.825-0.617-2.444-4.533,1.053-4.849c3.786,2.011,4.91,6.475,7.374,9.7c3.59-0.389,1.735-2.988,4.212,0
			c1.81-2.479-1.207-3.398,1.054-4.852c1.097,2.75,1.097,4.041,0,6.79c7.476-3.883-0.09-4.773,3.16-10.67
			c1.94,3.956,3.021,7.909,6.321,12.61c0.682-3.596-3.463-7.732-2.108-8.73c2.963,0.184,2.884,3.164,5.267,3.88
			c-2.851-6.782-4.254-7.42-7.373-9.699c0.871-2.739-1.485-2.511-1.054-4.847c2.755,0.696,3.229,3.49,6.321,3.879
			c-2.688-3.7-2.198-6.144,1.051-8.728c-3.157-0.971-6.382-1.885-9.479-2.911c5.062,0.336-6.58-3.665-1.054-6.787
			c4.847,2.953,7.007,4.1,10.532,6.787c-0.625-2.01,1.304-6.372-1.051-6.787c-0.121,1.182-0.315,2.294-2.108,1.939
			c1.18-3.055,0.094-2.196,0-5.819c1.058-0.003,1.253,0.786,2.108,0.969c0.839-3.797-3.208-9.473-1.054-13.575
			c2.282-0.164,0.478,3.439,1.054,4.849c2.626-0.492,4.327-1.833,6.319-2.908c-0.821-0.214-1.223-0.812-1.055-1.94
			c-4.194-0.525,1.136,3.434-4.213,2.908c2.963-5.547-3.629-4.634-1.051-9.698c1.736,0.016,0.589,2.691,2.105,2.911
			c0.178-1.13,1.665-1.054,3.159-0.971c1.098-3.975-3.244-7.931,0-10.668c0.1,1.524-0.14,3.363,2.108,2.908
			c0.928-2.376,1.303-5.263,4.213-5.819c-2.03-7.423-1.656-20.521,4.213-27.152c-0.132,2.426-2.01,3.036,1.053,3.88
			c0.813-2.483,1.05-5.498,3.16-6.791c-0.207,6.082,8.459,8.55,11.588,5.819c-2.692,2.878,1.741,4.787,0,5.819
			c-2.301-3.92-5.901-4.1-9.481-4.848c2.951,7.832-7.132,12.005-2.106,15.517c2.089-0.665-0.657-5.778,3.161-4.851
			c1.325,4.234,2.125,2.64,4.214,2.912c-0.453,1.845-2.271,2.435-2.108,4.848c4.97,0.371,2.001-6.562,7.372-5.819
			c-1.953,3.827,3.972,5.076,3.163,10.666c1.812,0.385,2.699-1.438,3.159,0c-1.481,3.815-0.938,8.083,2.107,11.639
			c3.952,0.729,2.294-3.705,5.265-3.879c0.575,1.41-1.228,5.013,1.055,4.85c3.379-3.5-0.938-9.731,2.108-14.548
			c1.789,7.016-1.941,16.751,3.159,16.488c-2.769-0.288-0.83,3.76-4.214,2.908c-0.411-1.487-1.264-0.144,0,0.971
			c5.089-0.488,5.756-5.046,7.372-8.73c0.987,3.887,0.826,8.643-2.107,9.699c2.62-0.107,3.261-1.818,5.267,0
			c-1.44-2.874,0.617-4.222,0-8.727c2.613-0.504,3.752-2.364,5.268-3.88c1.949,1.436,1.576,5.013,5.267,4.848
			c0.143-1.806,0.693-3.241,2.107-3.879c2.364,3.012-2.005,6.358,2.107,7.758c2.389-2.327,2.317-6.918,4.212-9.698
			c-0.979-2.651-3.231-4.136-4.212-6.787c1.836,0.073,3.276-0.217,4.212-0.971c-2.505-8.688,3.016-13.001-3.159-21.334
			c1.352-1.601,5.395-5.673,6.321-1.939c-2.205,1.12-3.96-0.455-5.268,2.907c2.573,2.459,2.243-2.043,6.321-0.968
			c-0.757,1.032-4.115,4.466-1.054,5.818c2.961-1.634-0.171-4.954,3.16-2.91c0.612-3.528-2.778-8.357-1.052-9.699
			c4.003-0.775,1.336,4.589,2.104,6.791c1.993-0.217,2.324,1.094,4.213,0.968c-0.211-3.104,1.765-4.194,4.214-4.848
			c0.927-3.431-2.708-4.997,1.055-5.819c0.339,2.142,7.933-4.147,10.532-3.879c0.919,3.109-1.621,3.033-3.16,3.879
			c-0.94,5.716,2.061,7.802,7.372,7.76c0.302-3.281,3.279-4.094,4.216-6.791c-4.252-2.55-7.042-6.445-8.428-11.635
			c4.934-0.653,7.201-8.855,5.267-12.61c-0.222,1.091-1.167,1.513-2.106,1.94c1.087-4.555-4.918-2.581-4.215-6.787
			c3.773-5.997,1.607-12.487,3.162-17.458c3.469,1.434,3.652,7.38,4.213,8.73c2.065-1.329,0.671-5.85,4.214-5.819
			c0.078,1.689-0.234,3.016-1.052,3.88c3.31-1.112,2.557,1.521,4.211,1.939c2.373-4.404-6.442-11.314-4.211-15.518
			c1.853,0.877,1.737,3.571,4.211,3.88c-1.053-2.371-1.853-8.067,1.051-3.88c0.904-3.32-0.768-6.827-2.104-9.698
			c2.357,2.202,4.343-3.271,6.32,0.972c0.409-2.533,0.541-5.321,2.108-6.791c1.868,0.932,4.86,5.782,5.264,4.851
			c-1.564-2.786-0.406-11.107-3.158-4.851c1.341-4.579,2.419-5.324-1.054-8.727c1.539-2.139,8.344,0.568,8.426-2.911
			c-1.839-0.892-2.326-3.031-2.105-5.817c1.347-0.054,1.458-1.243,3.16-0.971c0,1.939,0,3.88,0,5.819
			c7.293-2.569,3.509-8.785,4.214-12.607c2.69,0.108,2.088,3.248,2.106,5.819c5.604-1.163,4.426-9.768,3.162-14.548
			c1.4,0,2.807,0,4.211,0c-0.686-5.48-5.046-15.255,2.108-14.546c0.179-6.622-0.604-13.349-2.108-21.335
			c1.518-0.518,2.572,3.779,3.159,0.97c-5.331-4.356,0.506-13.138-6.321-15.518c2.959-3.608-3.15-16.032-9.478-14.546
			c-2.333,1.396,1.324,2.365-1.054,2.908c-0.332-1.311-1.501-1.851-1.055-3.878c-11.326,6.01-23.056-4.979-33.706,3.878
			c-0.821-0.214-1.226-0.812-1.054-1.938c-4.628,4.144-14.385,3.567-17.904,8.729c-7.379-2.3-11.187,2.166-22.124,3.879
			c-10.705-3.396-24.544-3.911-32.654-9.698c0.208,3.363,5.536,2.016,5.267,5.819c-2.028-1.964-4.238-2.256-7.373-0.971
			c0.306-0.596,2.619-3.733,0-3.88c-1.355,2.512-2.179,3.049-5.268,1.939c-1.311,39.524-44.634,40.37-87.428,41.702
			c0.294,2.211-0.253,3.646-2.107,3.879c-29.678-9.527-40.349-36.554-50.561-64.006c0.638-2.322,1.515-4.425,1.054-7.759
			c-8.065-6.083-10.907,8.126-14.747,2.91c2.705,11.396-7.792,16.808-13.693,23.274c-2.454-4.267,2.174-10.188-1.053-14.545
			c-7.349,3.256-13.858,7.285-11.587,19.396c-1.052,0-2.106,0-3.159,0c-0.919,6.424,3.064,11.015,5.266,11.637
			c-1.225,14.603-17.533,35.305-38.975,25.214c-0.502-3.473-1.713-5.604,0-8.727c-9.184-12.237-17.616-30.328-14.747-50.43
			c10.959,0.804,8.326,18.534,20.014,15.516c3.244,2.34,10.124,3.77,14.748,1.939c-0.972-4.276-2.781-7.782-6.321-9.696
			c0.095-1.529,2.687-0.757,2.106-2.91c-8.661-5.927-24.554-5.195-31.601-12.607c3.73-2.061,7.625-3.971,11.588-5.819
			C104.792,293.882,96.589,297.968,91.924,305.31z M287.847,586.551c-2.51-3.349,0.233-5.85-4.212-7.759
			C281.536,582.449,284.555,585.16,287.847,586.551z M341.569,518.664c0.275-1.509,2.31-0.671,3.16,0
			c-0.177-2.813,6.08-4.661,3.159-6.79c-2.673,5.266-0.567-2.663-4.213-1.94C345.711,514.775,337.787,515.43,341.569,518.664z
			 M348.941,519.633c1.125-3.302,0.329,2.7,3.161,0.972c0.012-3.247-2.668-4.011-4.215-5.819
			C348.464,516.193,346.659,519.798,348.941,519.633z M432.156,478.902c-0.531-2.419-1.99-3.986-3.158-5.819
			c-0.695,2.918-4.05,3.385-3.161,7.759C429.48,481.609,430.281,479.764,432.156,478.902z M514.317,299.491
			c11.911,5.891,6.123-0.978-4.213-3.879C511.253,297.803,513.341,299.007,514.317,299.491z M298.379,305.31
			c3.208-0.279,7.193,0.155,7.375-2.909c-0.147-2.774-4.394-1.774-7.375-1.939C298.379,302.077,298.379,303.692,298.379,305.31z
			 M525.903,303.371c2.618-0.146,4.373,0.5,5.27,1.939c-0.643,0.055-1.248,0.145-1.055,0.969c3.085,0.253,3.237-2.192,6.32-1.939
			c0-0.647,0-1.294,0-1.939c-0.641-0.055-1.246-0.145-1.052-0.97C532.552,305.557,527.612,299.405,525.903,303.371z M557.506,305.31
			c-5.65,1.603-10.36-2.688-12.64-0.97C547.375,305.85,556.619,308.388,557.506,305.31z M519.587,309.188
			c2.564-0.579,6.663-1.185,9.479-3.879C525.63,305.743,518.492,307.803,519.587,309.188z M343.674,311.129
			c-0.914,4.601,2.573,2.684,3.162,3.879c2.021,3.589-6.339,2.418-3.162,3.878c4.191-0.708,4.234-0.708,8.428,0
			c-1.008-1.805,3.155-3.239,0-3.878C350.121,315.062,349.136,313.156,343.674,311.129z M370.01,326.645c2.103,0,4.211,0,6.318,0
			c-1.029-4.824,4.258-3.837,5.267-6.788c-4.663,1.384-2.755-3.282-6.32-2.91c-2.352,4.914-10.012-0.772-13.694-0.969
			C363.117,320.21,378.502,322.292,370.01,326.645z M111.937,323.736c0.168-3.063,0.037-5.853-2.107-6.789
			C110.01,319.691,108.923,323.601,111.937,323.736z M210.952,320.825c-3.328-3.056-1.347-0.192-1.053,0.971
			c1.388,5.501,13.935,30.058,21.067,29.092C221.169,343.747,215.467,332.833,210.952,320.825z M392.13,323.736
			c-0.081-1.689,0.234-3.018,1.052-3.879C389.044,316.732,385.695,323.954,392.13,323.736z M585.946,323.736
			c0.938,0.286,4.615,2.623,2.104,2.908c-3.994,0.125-2.954-4.39-6.317-4.848c4.122,5.416-4.422,2.361-5.266,5.819
			c6.651,1.971-3.397,2.612-2.107,5.817c9.673,2.413,11.961-8.173,22.12-5.817c0.149-5.593-9.516-5.161-9.48-5.819
			C588.875,322.267,586.543,322.829,585.946,323.736z M121.418,345.071c-2.979-2.43-3.343-7.268-6.32-9.698
			C115.875,339.211,118.966,345.996,121.418,345.071z M120.364,349.92c-1.264-4.331-3.486-7.78-6.32-10.668
			C115.625,343.292,117.032,347.493,120.364,349.92z M614.39,347.01c-10.96,4.325-2.014,22.394-6.322,26.186
			c0.06-0.591,0.158-1.147,1.052-0.97c1.97,14.418-4.275,21.279-5.267,32.972c11.627-11.259,29.218-45.432,11.586-63.035
			C612.517,343.613,617.271,346.128,614.39,347.01z M574.36,353.8c0.747,7.475-5.938,8.11-8.427,12.606
			c2.693,6.516,5.734,11.226,3.159,20.366c-2.147-1.864-4.303,1.735-7.373,1.939c1.396,6.528-5.187,14.934-11.586,14.546
			c0.134,3.738-1.299,9.937-2.107,15.518c-10.873,4.859-19.352,11.925-30.548,16.485c-2.285,5.801,0.604,10.35-1.053,16.485
			c-5.195,2.271-11.342,7.436-6.321,13.578c-8.112,13.224,12.319,23.649,25.282,19.397c13.829-4.536,27.575-22.87,27.388-32.976
			c2.702,2.081-0.883,5.42,1.052,6.791c15.549-6.698,25.193-23.997,30.55-36.851c-7.268,5.421-24.535,21.557-33.71,21.333
			c-13.169-0.32-9.184-15.551-2.106-14.546c2.304,0.327,2.409,4.908,5.267,4.848c4.583-0.095,9.201-5.217,14.748-8.727
			c24.941-15.793,27.754-48.001,21.065-74.674C591.44,346.594,583.124,350.344,574.36,353.8z M542.76,356.708
			c-1.291,4.803,0.66,5.862-1.056,9.698c4.926-1.386,6.253-6.981,9.484-3.879c0.546-1.436,1.557-2.444,2.105-3.88
			c-1.876-0.538-4.375-0.498-5.268-1.939c3.851-1.368,5.646,1.384,7.372-1.939C548.892,351.796,545.894,355.905,542.76,356.708z
			 M518.532,383.864c-1.093,11.708-3.647,21.699-8.428,33.942c4.393-0.165,5.198,2.973,9.482,2.908
			c10.927-8.508,31.307-30.953,14.745-44.609c-2.435-2.01-4.539,1.284-6.32-2.91C524.436,375.946,522.335,384.469,518.532,383.864z
			 M507.998,426.534c1.588-1.448,0.315-5.529,4.214-4.848c0.218,2.853-4.164,6.424-1.053,8.727c0.235-3.986,4.646-4.127,4.214-8.727
			c-1.97-0.776-3.859-1.622-6.319-1.94C509.652,422.318,505.397,428.294,507.998,426.534z M161.445,432.353
			c-5.125-1.747-8.461-5.141-14.747-5.818c-1.917,10.196-4.068,20.176-3.161,32.971c4.082,0.526,0.91-5.626,4.214-5.818
			c3.125,1.252-2.684,7.215,0,4.851c2.269-0.818,1.699-4.255,3.159-5.819c-1.517-2.144-2.569,1.223-3.159-0.972
			C154.703,446.835,156.073,440.065,161.445,432.353z M161.445,460.478c1.226,4.093-5.842,5.537-3.161,7.758
			c3.069-2.67,5.221-6.186,8.427-8.73C163.404,459.029,163.928,462.851,161.445,460.478z M217.272,479.874
			c8.211-0.858,16.768-6.531,16.854-11.639C231.19,474.583,223.809,476.838,217.272,479.874z M170.926,479.874
			c-0.825-2.395,3.826-6.714-1.054-6.791C170.498,475.094,168.569,479.456,170.926,479.874z M416.356,496.359
			c2.777,0.293,2.719-2.024,3.159-3.879c-2.013-1.381-3.77-2.997-5.264-4.851C413.075,492.267,417.533,491.723,416.356,496.359z
			 M399.504,501.207c2.014,2.725,5.49-1.331,8.426-0.968c0.159-2.411-0.545-4.026-2.107-4.851
			C405.567,499.029,400.382,498.138,399.504,501.207z M417.41,507.997c-0.727-3.598-1.133-5.681,0-8.729
			c-4.147-1.552-0.365,4.188-3.158,3.879c0.357-8.586-2.673,4.727-5.269-2.907c-1.611,3.082-0.372,4.264,0,7.758
			c1.449-0.042,2.312,0.455,3.159,0.969C414.754,504.913,416.593,508.087,417.41,507.997z M398.452,505.087
			c5.045,1.401,1.876,8.708,4.21,12.606c7.958-2.383,0.488-9.104,0-14.547C400.262,502.875,398.702,503.383,398.452,505.087z
			 M412.143,511.874c-0.59,2.017-1.642,2.056-3.159,0.972c0.03,5.138,4.099,0.929,7.373,0.969c0.157-2.407-0.545-4.023-2.104-4.849
			c-0.954,3.522-5.945-2.022-6.322,0.968C409.787,511.935,411.192,510.783,412.143,511.874z M344.729,523.513
			c0.332-1.311,1.498-1.853,1.054-3.88c-1.406,0-2.809,0-4.213,0C341.39,522.061,343.187,522.669,344.729,523.513z M358.422,554.547
			c0.222-1.173,1.167-0.598,2.107,0c-2.188-4.706,1.166-2.32,3.16-3.879c1.815-1.112,0.812-7.093,2.105-11.638
			c-3.383,0.852-1.443-3.198-4.214-2.908c-0.158,2.865,3.064,6.842-1.051,7.756c-0.653-2.631,1.336-7.695-1.054-8.728
			C355.439,545.414,357.145,543.921,358.422,554.547z M349.995,554.547c-5.161,0.996-7.299,8.92-2.108,11.636
			c1.907-4.249,6.323-8.951,2.108-13.575C349.995,553.252,349.995,553.899,349.995,554.547z M171.979,557.455
			c-0.179-1.45,0.376-3.58-1.053-3.879c-0.333,2.281-4.994,0.577-4.214,3.879C169.954,556.776,168.736,556.776,171.979,557.455z
			 M321.555,560.366c-1.701,3.293,1.225,6.091,4.213,7.756c0.103,1.524-0.14,3.363,2.107,2.91
			c-0.587-6.265-0.333-6.545,1.054-11.637c-3.362,0.83-3.258-1.528-5.268-1.94c-1.439,4.234,4.081,2.065,3.161,5.819
			C324.338,562.975,324.861,559.905,321.555,560.366z M317.341,572.001c1.451-0.039,2.314,0.459,3.159,0.972
			c-0.004-1.732,2.839-5.642,0-6.79c-0.311,2.309-2.848-1.075-3.159-1.937c-0.157-1.292,4.284-2.93,1.053-3.88
			C315.096,563.521,317.982,566.396,317.341,572.001z M357.368,563.274c-1.865-0.867-1.34-3.938-5.266-2.908
			c0.63,1.726-3.089,4.026,0,4.849c0.254-1.709,1.811-2.213,4.214-1.94C356.312,563.812,357.167,564.373,357.368,563.274z
			 M342.623,579.761c3.081-0.395,3.417-3.317,5.264-4.848c-2.748-3.61-5.782-6.962-8.426-10.667
			c-1.474,0.98-4.779,5.192-2.106,6.786c1.941-1.089,5.717,4.399,7.374,6.788C343.442,577.931,342.235,578.111,342.623,579.761z
			 M332.088,576.852c1.46,0.597,0.157,3.733,2.105,3.881c1.433-1.931,4.182-5.566,6.321-3.881c-0.882-4.74-4.477-0.992-6.321-4.851
			C333.743,573.85,331.926,574.438,332.088,576.852z M325.768,572.973c-1.752,3.045,3.919,3.962,1.054,4.848
			c-1.392-0.01-0.964-1.698-2.106-1.939c-1.27,5.369,3.007,5.636,3.159,9.698c7.111-0.27-1.744-5.801,3.16-6.787
			c-2.08-0.673-2.809-2.588-3.16-4.851c0.586,0.003,1.195-0.785,0-0.969C327.65,574.146,326.705,573.568,325.768,572.973z
			 M296.274,594.306c4.469-2.422,7.38-10.499,1.054-12.606C292.505,584.831,298.498,593.396,296.274,594.306z M292.061,594.306
			c-0.115-2.409-1.974-2.999,0-4.847c-3.188-0.296-3.763-3-8.425-1.94C284.397,591.664,289.549,591.771,292.061,594.306z
			 M287.847,599.157c-0.045-1.336,0.496-2.129,1.055-2.911c-4.308,1.313-3.21-7.301-6.321-3.877
			c3.226,0.947-0.471,3.269-1.054,3.877c3.154,1.299,2.875,5.758,6.32,6.79c1.669-2.557,0.775-3.378-1.054-0.971
			c0.276-2.838-2.381-2.979-2.107-5.819c0.702,0,1.407,0,2.107,0C286.959,597.388,286.613,599.001,287.847,599.157z
			 M196.205,604.977c-2.656-1.579-3.558-2.676-9.479-2.911c1.963,3.598,7.101,5.528,6.32,6.79c0.144-1.809,0.692-3.241,2.106-3.879
			C195.148,605.514,196.005,606.075,196.205,604.977z M187.778,610.796c-0.817-0.218-2.077-0.027-2.106-0.973
			c2.153-2.096,0.362-6.029-2.107-6.787c0.515,3.061-1.898,3.424-1.053,6.787C185.204,608.779,186.199,614,187.778,610.796z
			 M372.113,731.049c1.838-0.896,5.657,0.031,5.269-2.91C374.698,728.251,371.963,728.322,372.113,731.049z M370.01,803.784
			c-0.425,11.68,3.523-8.765,3.157-8.73C371.917,797.781,370.798,800.631,370.01,803.784z M404.77,807.663
			c1.382,7.142,0.072,8.397-3.16,12.606c6.629,9.701,19.953-3.623,14.747-13.578C410.435,804.981,407.956,809.887,404.77,807.663z
			 M413.196,828.996c6.369-4.166,13.685-12.604,10.534-22.305C424.116,817.074,415.604,824.415,413.196,828.996z"/>
	</g>
	<path fill-rule="evenodd" clip-rule="evenodd" fill="#FFFFFF" d="M485.879,145.294c-1.932,1.354-3.165-1.858-4.214-2.909
		C475.335,136.04,480.182,138.529,485.879,145.294z"/>
	<path fill-rule="evenodd" clip-rule="evenodd" d="M449.011,199.602c7.528,0.514,13.097,11.21,15.8,19.396
		C460.96,215.098,456.466,203.414,449.011,199.602z"/>
	<path fill-rule="evenodd" clip-rule="evenodd" fill="#FFFFFF" d="M482.717,218.029c2.362-2.734,2.11,5.105,4.215,5.818
		C483.864,227.229,484.772,218.788,482.717,218.029z"/>
	<path fill-rule="evenodd" clip-rule="evenodd" d="M436.37,225.787c4.11,3.333,3.523,9.242,9.482,12.607
		C442.802,238.431,434.476,230.357,436.37,225.787z"/>
	<path fill-rule="evenodd" clip-rule="evenodd" fill="#FFFFFF" d="M313.128,278.155c-1.87,1.971-6.767-1.473-9.481-1.939
		c-25.234-5.188-50.109,1.355-71.628,3.878c-3.355,0.393-3.692,0.461,0-0.97C248.016,272.928,292.259,270.03,313.128,278.155z"/>
	<path fill-rule="evenodd" clip-rule="evenodd" fill="#FFFFFF" d="M296.274,279.125c-0.178-2.102,3.735-0.439,5.267-0.97
		c0.906,0.783,0.625,2.656,2.105,2.91C302.825,282.688,298.55,279.368,296.274,279.125z"/>
	<path fill-rule="evenodd" clip-rule="evenodd" fill="#FFFFFF" d="M115.098,291.732c-3.963,1.848-7.858,3.759-11.588,5.819
		c7.047,7.413,22.94,6.681,31.601,12.607c0.58,2.152-2.011,1.38-2.106,2.91c3.54,1.915,5.349,5.42,6.321,9.696
		c-4.624,1.83-11.503,0.4-14.748-1.939c-11.688,3.019-9.055-14.712-20.014-15.516c-2.869,20.103,5.563,38.193,14.747,50.43
		c-1.713,3.124-0.502,5.254,0,8.727c21.442,10.091,37.75-10.611,38.975-25.214c-2.202-0.622-6.186-5.212-5.266-11.637
		c1.053,0,2.107,0,3.159,0c-2.271-12.112,4.239-16.141,11.587-19.396c3.227,4.357-1.4,10.279,1.053,14.545
		c5.902-6.466,16.398-11.877,13.693-23.274c3.84,5.217,6.682-8.993,14.747-2.91c0.461,3.334-0.416,5.437-1.054,7.759
		c10.212,27.452,20.883,54.479,50.561,64.006c1.854-0.233,2.401-1.667,2.107-3.879c42.794-1.332,86.117-2.178,87.428-41.702
		c3.089,1.109,3.913,0.573,5.268-1.939c2.619,0.147,0.306,3.284,0,3.88c3.134-1.285,5.344-0.993,7.373,0.971
		c0.269-3.803-5.059-2.457-5.267-5.819c8.11,5.787,21.95,6.302,32.654,9.698c10.937-1.713,14.745-6.179,22.124-3.879
		c3.52-5.162,13.276-4.585,17.904-8.729c-0.172,1.126,0.232,1.725,1.054,1.938c10.65-8.857,22.38,2.132,33.706-3.878
		c-0.446,2.027,0.723,2.567,1.055,3.878c2.378-0.542-1.279-1.512,1.054-2.908c6.327-1.486,12.437,10.938,9.478,14.546
		c6.827,2.379,0.99,11.161,6.321,15.518c-0.587,2.809-1.642-1.488-3.159-0.97c1.504,7.986,2.287,14.713,2.108,21.335
		c-7.154-0.708-2.794,9.066-2.108,14.546c-1.404,0-2.811,0-4.211,0c1.264,4.78,2.441,13.385-3.162,14.548
		c-0.019-2.571,0.584-5.711-2.106-5.819c-0.705,3.823,3.079,10.038-4.214,12.607c0-1.939,0-3.88,0-5.819
		c-1.702-0.272-1.813,0.917-3.16,0.971c-0.221,2.786,0.267,4.926,2.105,5.817c-0.082,3.479-6.887,0.772-8.426,2.911
		c3.473,3.402,2.395,4.147,1.054,8.727c2.752-6.257,1.594,2.064,3.158,4.851c-0.403,0.932-3.396-3.919-5.264-4.851
		c-1.567,1.47-1.699,4.258-2.108,6.791c-1.978-4.243-3.963,1.23-6.32-0.972c1.337,2.871,3.009,6.378,2.104,9.698
		c-2.903-4.188-2.104,1.509-1.051,3.88c-2.474-0.309-2.358-3.003-4.211-3.88c-2.231,4.203,6.584,11.113,4.211,15.518
		c-1.654-0.419-0.901-3.052-4.211-1.939c0.817-0.864,1.13-2.19,1.052-3.88c-3.543-0.03-2.148,4.49-4.214,5.819
		c-0.561-1.351-0.744-7.297-4.213-8.73c-1.555,4.971,0.611,11.461-3.162,17.458c-0.703,4.206,5.302,2.232,4.215,6.787
		c0.939-0.428,1.885-0.85,2.106-1.94c1.935,3.755-0.333,11.957-5.267,12.61c1.386,5.189,4.176,9.085,8.428,11.635
		c-0.937,2.697-3.914,3.51-4.216,6.791c-5.312,0.042-8.312-2.044-7.372-7.76c1.539-0.846,4.079-0.77,3.16-3.879
		c-2.6-0.269-10.193,6.021-10.532,3.879c-3.763,0.822-0.128,2.389-1.055,5.819c-2.449,0.653-4.425,1.744-4.214,4.848
		c-1.889,0.126-2.22-1.185-4.213-0.968c-0.769-2.202,1.898-7.566-2.104-6.791c-1.727,1.342,1.664,6.171,1.052,9.699
		c-3.331-2.044-0.199,1.276-3.16,2.91c-3.061-1.353,0.297-4.786,1.054-5.818c-4.078-1.075-3.748,3.427-6.321,0.968
		c1.308-3.362,3.062-1.787,5.268-2.907c-0.926-3.733-4.969,0.339-6.321,1.939c6.174,8.333,0.654,12.646,3.159,21.334
		c-0.936,0.754-2.375,1.044-4.212,0.971c0.98,2.651,3.233,4.136,4.212,6.787c-1.895,2.78-1.823,7.371-4.212,9.698
		c-4.112-1.399,0.257-4.746-2.107-7.758c-1.414,0.638-1.964,2.073-2.107,3.879c-3.691,0.165-3.317-3.412-5.267-4.848
		c-1.515,1.516-2.655,3.376-5.268,3.88c0.617,4.505-1.44,5.853,0,8.727c-2.006-1.818-2.647-0.107-5.267,0
		c2.933-1.057,3.094-5.812,2.107-9.699c-1.616,3.685-2.283,8.242-7.372,8.73c-1.264-1.114-0.411-2.458,0-0.971
		c3.384,0.852,1.445-3.196,4.214-2.908c-5.1,0.263-1.37-9.473-3.159-16.488c-3.046,4.816,1.271,11.048-2.108,14.548
		c-2.283,0.163-0.48-3.439-1.055-4.85c-2.971,0.174-1.312,4.608-5.265,3.879c-3.046-3.556-3.588-7.823-2.107-11.639
		c-0.46-1.438-1.347,0.385-3.159,0c0.809-5.59-5.116-6.839-3.163-10.666c-5.371-0.743-2.402,6.19-7.372,5.819
		c-0.163-2.413,1.655-3.003,2.108-4.848c-2.089-0.272-2.889,1.322-4.214-2.912c-3.818-0.928-1.071,4.186-3.161,4.851
		c-5.026-3.512,5.058-7.685,2.106-15.517c3.581,0.748,7.181,0.928,9.481,4.848c1.741-1.032-2.692-2.941,0-5.819
		c-3.128,2.73-11.795,0.263-11.588-5.819c-2.11,1.293-2.347,4.308-3.16,6.791c-3.063-0.844-1.185-1.454-1.053-3.88
		c-5.87,6.632-6.243,19.729-4.213,27.152c-2.911,0.557-3.286,3.443-4.213,5.819c-2.248,0.455-2.008-1.384-2.108-2.908
		c-3.244,2.737,1.098,6.693,0,10.668c-1.494-0.083-2.981-0.159-3.159,0.971c-1.516-0.22-0.369-2.896-2.105-2.911
		c-2.578,5.064,4.014,4.151,1.051,9.698c5.35,0.525,0.02-3.434,4.213-2.908c-0.168,1.128,0.233,1.727,1.055,1.94
		c-1.992,1.075-3.693,2.416-6.319,2.908c-0.576-1.409,1.228-5.013-1.054-4.849c-2.153,4.103,1.894,9.778,1.054,13.575
		c-0.854-0.183-1.05-0.972-2.108-0.969c0.094,3.623,1.18,2.765,0,5.819c1.792,0.354,1.987-0.758,2.108-1.939
		c2.355,0.415,0.425,4.777,1.051,6.787c-3.525-2.688-5.686-3.834-10.532-6.787c-5.526,3.122,6.116,7.123,1.054,6.787
		c3.097,1.026,6.322,1.94,9.479,2.911c-3.249,2.584-3.739,5.027-1.051,8.728c-3.093-0.389-3.566-3.183-6.321-3.879
		c-0.432,2.336,1.924,2.107,1.054,4.847c3.119,2.279,4.521,2.917,7.373,9.699c-2.383-0.716-2.304-3.696-5.267-3.88
		c-1.355,0.998,2.79,5.135,2.108,8.73c-3.3-4.701-4.381-8.654-6.321-12.61c-3.25,5.896,4.316,6.787-3.16,10.67
		c1.097-2.749,1.097-4.04,0-6.79c-2.261,1.453,0.756,2.373-1.054,4.852c-2.477-2.988-0.622-0.389-4.212,0
		c-2.464-3.226-3.588-7.689-7.374-9.7c-3.497,0.315,2.772,4.231-1.053,4.849c1.057,2.361,4.658-1.9,4.213,2.911
		c-2.112,1.83-4.896-1.191-5.268-3.879c-3.836,0.607,2.843,4.899-2.106,3.879c0.246-7.069-6.832-1.421-7.374-7.76
		c-2.357,1.613,1.773,5.417,5.267,4.849c-0.277,3.922-4.744,2.85-6.319,0.971c1.387,2.924,3.401,5.273,3.16,9.699
		c-2.193,0.547-3.405,2.771-5.267,0.968c-1.563,0.824-2.265,2.441-2.107,4.851c0.546,1.295,6.329-3.573,5.266,2.909
		c-4.691-5.609-0.423,3.875-4.213,0.968c-0.203,3.745,4.892,2.609,4.213,6.79c-3.301,1.073-2.969,0.626-4.213-1.939
		c-2.366,0.407-0.029,5.144-2.107,5.818c-2.024-0.351-4.418-8.225,1.054-6.79c0.296-1.563-0.995-1.668-1.054-2.908
		c-4.385,2.429-9.674,4.024-11.586,8.728c-2.63-0.669,1.956-2.587,1.053-4.848c-3.898-0.682-2.626,3.399-4.214,4.848
		c-1.43-0.299-0.873-2.429-1.053-3.879c-9.079,1.526,0.942,9.572-4.213,15.518c-3.332-2.429-2.938-8.288-6.32-10.668
		c-1.562,0.826-2.265,2.441-2.107,4.849c-1.504-1.292-2.786-4.313-1.054-5.819c-2.329,0.767-2.636,3.394-4.213,4.852
		c-1.262-6.01,0.66-12.1,3.161-18.427c-2.954-1.905-4.143,5.163-4.213,6.788c-1.196-0.184-0.585-0.975,0-0.972
		c-2.302-3.286-3.388,2.608-4.214,3.88c-1.848-2.786,0.931-2.188-3.161-2.908c-2.284-0.165-0.477,3.439-1.053,4.848
		c-2.901-0.007-5.578-1.741-3.161-3.88c-1.805-0.165-4.141,5.501-4.213,0.972c-2.092,0.66-2.41,2.954-4.214,3.88
		c-2.656,0.477,2.938-4.814-2.106-3.88c0.024,2.915-3.16,3.607-5.267,6.788c-1.701-0.954-2.423-2.588-1.054-3.88
		c-2.738,1.237-3.178,2.129-6.32,0.972c-1.706,2.31-4.862,3.28-7.374,4.847c-1.788-0.628-0.658-2.229,1.053-1.938
		c0.846-3.363-1.569-3.728-1.053-6.788c5.071,0.145,4.302-5.092,7.374-6.791c-2.923,0.221-2.98,3.076-5.267,3.88
		c-0.111-2.024,2.655-8.211,6.32-7.755c-1.614-3.01-2.579-3.027,2.106-3.88c-2.273-2.081-0.541-5.419,1.053-6.79
		c3.229,0.952-1.211,2.587-1.053,3.879c0.89,2.092,5.43,0.818,6.32,2.911c1.144-0.241,0.715-1.93,2.107-1.939
		c-0.46-1.442-1.348,0.382-3.161,0c3.434-2.335,1.875-9.269,6.32-10.67c-0.325-1.316-2.637-0.804-4.213-0.969
		c2.263-1.472,4.478-2.99,7.374-3.879c-7.157-2.291,3.563-7.925-2.107-10.667c1.46-1.892,3.786-2.981,4.213-5.819
		c-2.871,1.882-3.976,5.392-8.427,5.819c0.998-4.46,8.352-6.006,3.16-10.67c1.792,0.357,1.988-0.755,2.107-1.94
		c1.024,0.027,0.816,1.189,1.054,1.94c3.633-1.081-2.089-6.863,0-12.606c-4.509,3.283-3.957,11.229-8.427,14.547
		c0.015,2.278,2.874-0.355,2.107-1.94c2.851,2.498-3.468,6.735-5.267,2.911c3.05-1.649,5.062-8.562,0-5.819
		c1.397-1.626,2.791-3.25,2.106-6.79c-1.814-0.914-1.723-3.583-5.266-2.908c0.453,1.521,3.313,0.828,2.106,3.88
		c-2.961-1.211-3.481-3.975-2.106-6.788c-5.197,2.324-10.797,4.282-13.694,8.728c-3.291-1.567,2.162-3.07,2.107-4.848
		c-4.672,1.839-8.583,4.38-10.533,8.727c-2.27-1.226,1.337-5.159,2.106-6.79c-2.526-2.572-2.814,5.113-7.374,3.879
		c0.012-2.574-0.397-5.538,1.054-6.787c-5.283,1.433-2.287,6.451-1.054,9.698c1.026-0.027,0.818-1.188,1.054-1.939
		c3.155,0.639-1.007,2.071,0,3.879c-1.078-0.946-2.13-1.917-3.159-2.91c-1.539,1.173-1.013,4.239-5.267,2.91
		c0.467,0.861,0.924,1.735,2.106,1.94c-3.375,1.097-4.747,4.035-7.373,5.818c1.574-0.91-1.039-7.984,4.213-8.73
		c-0.916-2.819-1.577-1.091-4.213-0.968c-0.24-1.72,1.061-4.857-2.108-3.879c0.386-3.479,2.83-3.553,1.055-6.788
		c-2.775-0.292-3.458,1.342-3.161,3.877c-2.194-0.557-1.317-6.271,1.054-5.816c-0.717-1.928-3.208-2.22-4.213-3.88
		c0.202-3.368,3.725-3.683,4.213-6.79c2.531,2.093-3.196,4.777,1.052,6.79c4.527-3.247-1.532-8.338,5.269-9.698
		c-0.272-2.015-4.629-0.265-5.269-1.939c4.818-0.738,7.573-3.375,8.429-7.759c9.973-3.527,19.708-10.132,29.494-4.848
		c9.698-2.31,37.645-12.423,46.348,0c0.847-0.513,1.71-1.015,3.16-0.972c0.725-2.608-2.178-1.875-3.16-2.907
		c3.728-1.658,4.884,2.44,8.426,2.907c8.638-1.194,13.915-1.136,17.907,4.851c2.48,0.021,3.101-1.67,6.321-0.971
		c-0.559,0.778-1.099,1.573-1.054,2.907c1.854-0.231,2.402-1.668,2.108-3.875c1.653,0.414,0.899,3.049,4.212,1.938
		c-0.973,5.419,4.322,5.071,3.161,10.667c2.524,0.385-0.584-4.416,3.159-2.911c-3.369,5.331,3.786,6.7,8.426,7.76
		c-0.236-4.097,1.624-6.263,2.107-9.698c2.786,1.526,3.271,1.081,2.107-1.94c0.821,2.478,5.237,1.646,5.266,4.851
		c3.141-0.021,1.352-4.576,3.162-5.818c-1.89-0.123-2.222,1.188-4.213,0.968c-3.204-16.349-5.018-33.846-12.643-43.639
		c-2.208,0.27,1.528,2.591-1.051,3.88c2.372,2.663,3.867,6.137,5.265,9.695c-5.797-0.479-3.799-8.138-9.479-8.728
		c3.729,2.777,3.15,8.409,7.373,12.606c-4.809-0.421-5.034-5.064-6.321-8.727c-2.247-0.452-2.005,1.387-2.106,2.911
		c-1.963-1.72-2.371-3.932,0-4.852c-2.257-2.126-5.314-3.513-5.267-7.759c-4.314,2.921,2.961,6.996,1.054,13.578
		c-3.067-2.693-3.699-13.474-4.212-17.457c-1.08,0.947-2.132,1.918-3.162,2.911c0.589,2.19,1.643-1.177,3.162,0.968
		c-2.039,3.443-5.914,0.446-6.321-2.907c-2.897,1.39-0.82,4.404-3.161,7.759c-1.18-3.37,0.309-6.54-5.266-8.73
		c1.498-2.979,0.472-4.359-1.053-6.787c-0.3,2.646-1.648,3.348-2.106,7.759c-2.71-1.063-4.355-3.104-4.214-6.791
		c-2.837,1.149,0.004,5.059,0,6.791c-5.494-2.053-5.738-8.941-9.479-12.61c-0.28,1.293-0.499,4.335-2.107,6.791
		c0.386-6.396-5.257-4.273-2.107-12.606c-3.862,0.647-6.101,2.786-7.374,5.815c-4.105-2.608,3.265-2.721,2.107-5.815
		c-0.31-2.306-2.85,1.075-3.159,1.939c-2.271-1.444,1.152-2.739-2.107-3.879c-2.568,1.335-1.588,4.832-1.054,5.818
		c-0.936,2.612-2.941-1.68-2.107-3.879c-2.159,1.891-1.354,6.51-3.16,8.728c-1.539-2.459-4.931-6.727-1.054-8.728
		c-2.021-2.147-5.09-6.974-4.214-8.73c-2.163,0.272-2.102,2.591-3.159,3.88c-1.426,0.168-1.365-5.611-3.161-1.939
		c-3.705-1.659,2.643-1.952,2.107-3.88c-4.526,2.621-8.859,5.422-13.693,7.759c-2.163-1.433,3.58-3.751,3.16-6.787
		c-3.401-0.867-1.48,3.161-3.16,3.879c-0.74-2.776-6.173-0.477-7.374,1.939c-3.422-3.848,4.147-5.843,5.268-8.729
		c-0.108-2.325-8.597,3.669-5.268-0.969c-3.507,0.327-3.423,3.959-7.373,3.88c-0.029-0.944-1.291-0.755-2.107-0.972
		c4.135-13.461,22.799-15.987,31.601-12.606c1.088,13.538,30.781-1.289,29.494-12.606c0.29-3.823-4.504-2.966-4.214-6.79
		c-8.409,7.239-6.602,16.036-24.227,12.609c-13.811-2.688-28.551-9.751-43.188-6.79c-6.977,1.412-9.432,7.749-17.906,7.759
		c-0.895-4.237-9.322,0.012-10.534,3.879c-33.082,0.128-20.31-39.342-9.48-53.338c-44.351,10.797-50.837-23.695-50.56-62.067
		C96.589,297.968,104.792,293.882,115.098,291.732z M460.599,391.621c1.556-1.55,0.237-5.917-1.054-7.757
		C458.906,385.996,456.897,391.091,460.599,391.621z M216.219,437.2c-1.639-0.253-0.73-2.126,0-2.907
		c-2.64-0.168-2.557,2.172-4.213,2.907C213.863,438.047,215.269,440.447,216.219,437.2z M99.297,329.555
		c-0.69-7.801-0.123-15.745-2.107-24.246C94.729,312.607,96.667,323.759,99.297,329.555z M363.689,331.495
		c-2.689-1.695-12.678-6.033-12.639-3.879C354.399,329.085,359.801,333.744,363.689,331.495z M432.156,379.013
		c5.428,1.257,7.553-3.977,5.267-6.788C433.241,372.253,433.097,376,432.156,379.013z M419.516,446.899
		c1.367-1.372-0.534-5.205-3.159-5.819C416.826,443.558,417.833,445.54,419.516,446.899z M410.038,464.356
		c-5.569-4.148-0.413,13.284,1.052,15.518c-0.522-4.069,3.815-9.391,4.212-12.61c5.174-1.835,4.013,1.174,8.429,1.94
		c-0.04-6.076-2.85-12.671-8.429-10.667c0.486-3.47,2.591-10.496,0-13.577C412.558,450.516,414.97,460.815,410.038,464.356z
		 M402.662,478.902c-1.713-2.657-0.154-5.41,1.052-9.698c-3.728-0.525-2.586,3.434-6.316,2.911c2.297,4.022,3.05,9.473,7.372,11.635
		C403.064,480.451,406.113,474.98,402.662,478.902z M374.222,485.689c-0.137-2.389-0.159-4.67,1.054-5.815
		c-2.145-0.291-2.806-1.942-4.214-2.911C368.858,480.72,371.387,483.881,374.222,485.689z M337.355,485.689
		c0.157-1.793,3.567-0.592,4.214-1.939c0.621,2.014,2.027,3.309,4.213,3.88c0.57-3.434-3.73-2.383-3.159-5.819
		c-4.439,2.361-4.851-2.752-8.429-3.876C332.07,481.713,334.099,483.164,337.355,485.689z M374.222,487.63
		c0.976,1.691-0.035,5.205,3.161,4.851c-2.089-2.478,1.093-4.46-1.054-5.819C376.096,487.416,375.448,487.788,374.222,487.63z
		 M378.437,507.026c1.573-2.828,2.957-5.733-1.055-6.787C378.008,502.246,376.082,506.607,378.437,507.026z M357.368,511.874
		c-2.137-0.616-0.692-4.532-3.159-4.848C353.271,509.922,355.283,514.966,357.368,511.874z M368.955,522.544
		c3.394,0.629,3.394-10.328,0-9.698C368.66,517.95,370.07,518.594,368.955,522.544z M308.915,544.849
		c-0.885-5.195-2.91-10.367-3.16-14.546C303.322,534.849,306.033,542.06,308.915,544.849z M301.542,561.334
		c0.104-3.006-0.478-5.378-2.107-6.787c-1.185,3.736-4.082-3.739-5.268,0C297.932,555.604,298.87,559.27,301.542,561.334z
		 M294.167,570.062c-0.947-3.326-0.617-7.835-4.214-8.728C290.591,564.951,291.499,568.317,294.167,570.062z M285.74,568.122
		c-1.059,0.006-1.254-0.784-2.105-0.969c1.774,2.637-1.671,4.542,2.105,5.819c-1.848-3.43,3.539-4.997,1.053-5.819
		C286.735,567.746,286.637,568.303,285.74,568.122z M273.1,574.913c0.432-1.656,1.36,0.204,3.16,0
		c-0.146-1.806-0.692-3.241-2.107-3.881c-0.717,2.411-3.207-1.433-4.212-1.938C269.54,572.37,271.766,573.229,273.1,574.913z
		 M267.834,583.64c0.116-1.832,3.482-0.673,3.159-2.907c-2.429,0.296-1.169-2.802-3.159-2.912c-1.447,2.212,2.714,3.647,0,3.879
		c-1.182,0.099-1.64-1.408-2.106,0C267.119,581.712,266.69,583.4,267.834,583.64z M263.62,591.398
		c0.432-1.219,1.359-1.982,3.16-1.939c-0.536-2.417,0.035-5.851-3.16-5.819c-0.765,2.967,1.817,2.853,1.054,5.819
		C263.529,589.69,262.146,591.057,263.62,591.398z M264.674,593.338c2.284-0.162,0.477,3.439,1.054,4.848
		c5.3-0.092,0.436-3.919,4.213-5.816C267.483,592.073,265.402,590.299,264.674,593.338z M252.034,606.915
		c1.264-1.859,2.851-12.285-1.053-12.609C253.556,596.532,245.289,602.538,252.034,606.915z"/>
	<path fill-rule="evenodd" clip-rule="evenodd" fill="#FFFFFF" d="M510.104,295.612c10.336,2.901,16.124,9.77,4.213,3.879
		C513.341,299.007,511.253,297.803,510.104,295.612z"/>
	<path fill-rule="evenodd" clip-rule="evenodd" fill="#FFFFFF" d="M529.065,305.31c-2.815,2.694-6.914,3.3-9.479,3.879
		C518.492,307.803,525.63,305.743,529.065,305.31z"/>
	<path fill-rule="evenodd" clip-rule="evenodd" fill="#FFFFFF" d="M352.103,315.008c3.155,0.639-1.008,2.073,0,3.878
		c-4.194-0.708-4.237-0.708-8.428,0c-3.177-1.46,5.184-0.289,3.162-3.878c-0.589-1.195-4.076,0.722-3.162-3.879
		C349.136,313.156,350.121,315.062,352.103,315.008z"/>
	<path fill-rule="evenodd" clip-rule="evenodd" fill="#FFFFFF" d="M230.966,350.889c-7.133,0.965-19.68-23.591-21.067-29.092
		c-0.293-1.164-2.275-4.027,1.053-0.971C215.467,332.833,221.169,343.747,230.966,350.889z"/>
	<path fill-rule="evenodd" clip-rule="evenodd" fill="#FFFFFF" d="M217.272,284.944c-5.169,3.807-11.68,21.586,0,27.154
		c-2.216-13.008,11.809-18.652,24.227-15.517c-0.441,4.609,1.532,6.995,2.107,10.668c8.572-5.913,21.086-3.669,24.228-15.517
		c4.485,6.862-8.739,11.212-9.481,19.397c2.674,3.912,7.625-7.209,9.481-0.97c3.621-8.057,12.273-16.398,25.281-12.607
		c-1.248,5.716-1.924,13.158,2.106,16.486c9.741-0.892,17.173,0.477,26.333-1.939c6.655,33.198-20.949,41.65-52.667,43.642
		c-14.087,0.883-31.297-0.739-38.975-6.791c-11.205-8.831-19.719-30.106-21.067-41.7
		C207.815,298.379,209.03,289.316,217.272,284.944z"/>
	<path fill-rule="evenodd" clip-rule="evenodd" fill="#FFFFFF" d="M587,321.796c-0.035,0.658,9.63,0.227,9.48,5.819
		c-10.159-2.355-12.447,8.23-22.12,5.817c-1.29-3.206,8.759-3.847,2.107-5.817c0.844-3.458,9.388-0.403,5.266-5.819
		c3.363,0.458,2.323,4.974,6.317,4.848c2.511-0.286-1.167-2.623-2.104-2.908C586.543,322.829,588.875,322.267,587,321.796z"/>
	<path fill-rule="evenodd" clip-rule="evenodd" d="M351.05,327.616c-0.039-2.153,9.95,2.185,12.639,3.879
		C359.801,333.744,354.399,329.085,351.05,327.616z"/>
	<path fill-rule="evenodd" clip-rule="evenodd" fill="#FFFFFF" d="M115.098,335.373c2.978,2.43,3.341,7.269,6.32,9.698
		C118.966,345.996,115.875,339.211,115.098,335.373z"/>
	<path fill-rule="evenodd" clip-rule="evenodd" fill="#FFFFFF" d="M114.044,339.252c2.833,2.888,5.056,6.337,6.32,10.668
		C117.032,347.493,115.625,343.292,114.044,339.252z"/>
	<path fill-rule="evenodd" clip-rule="evenodd" fill="#FFFFFF" d="M615.438,342.162c17.632,17.604,0.041,51.776-11.586,63.035
		c0.991-11.693,7.236-18.554,5.267-32.972c-0.894-0.177-0.992,0.379-1.052,0.97c4.309-3.792-4.638-21.861,6.322-26.186
		C617.271,346.128,612.517,343.613,615.438,342.162z"/>
	<path fill-rule="evenodd" clip-rule="evenodd" fill="#FFFFFF" d="M509.054,419.746c2.46,0.318,4.35,1.164,6.319,1.94
		c0.432,4.6-3.979,4.74-4.214,8.727c-3.111-2.303,1.271-5.874,1.053-8.727c-3.898-0.682-2.626,3.399-4.214,4.848
		C505.397,428.294,509.652,422.318,509.054,419.746z"/>
	<path fill-rule="evenodd" clip-rule="evenodd" fill="#FFFFFF" d="M147.751,451.746c0.59,2.194,1.643-1.172,3.159,0.972
		c-1.46,1.564-0.89,5.001-3.159,5.819c-2.684,2.364,3.125-3.599,0-4.851c-3.304,0.192-0.132,6.345-4.214,5.818
		c-0.907-12.795,1.244-22.774,3.161-32.971c6.286,0.678,9.623,4.071,14.747,5.818C156.073,440.065,154.703,446.835,147.751,451.746z
		"/>
	<path fill-rule="evenodd" clip-rule="evenodd" d="M415.302,444.96c2.591,3.081,0.486,10.107,0,13.577
		c5.579-2.004,8.389,4.591,8.429,10.667c-4.416-0.767-3.255-3.775-8.429-1.94c-0.396,3.22-4.734,8.541-4.212,12.61
		c-1.465-2.233-6.621-19.666-1.052-15.518C414.97,460.815,412.558,450.516,415.302,444.96z"/>
	<path fill-rule="evenodd" clip-rule="evenodd" fill="#FFFFFF" d="M166.711,459.505c-3.206,2.545-5.358,6.061-8.427,8.73
		c-2.682-2.221,4.386-3.665,3.161-7.758C163.928,462.851,163.404,459.029,166.711,459.505z"/>
	<path fill-rule="evenodd" clip-rule="evenodd" fill="#FFFFFF" d="M234.126,468.235c-0.085,5.107-8.643,10.78-16.854,11.639
		C223.809,476.838,231.19,474.583,234.126,468.235z"/>
	<path fill-rule="evenodd" clip-rule="evenodd" d="M404.77,483.75c-4.322-2.162-5.075-7.612-7.372-11.635
		c3.73,0.522,2.589-3.437,6.316-2.911c-1.206,4.288-2.765,7.041-1.052,9.698C406.113,474.98,403.064,480.451,404.77,483.75z"/>
	<path fill-rule="evenodd" clip-rule="evenodd" fill="#FFFFFF" d="M425.837,480.842c-0.889-4.374,2.466-4.841,3.161-7.759
		c1.168,1.833,2.627,3.4,3.158,5.819C430.281,479.764,429.48,481.609,425.837,480.842z"/>
	<path fill-rule="evenodd" clip-rule="evenodd" fill="#FFFFFF" d="M412.143,508.966c-0.848-0.514-1.71-1.011-3.159-0.969
		c-0.372-3.494-1.611-4.676,0-7.758c2.596,7.634,5.626-5.679,5.269,2.907c2.793,0.309-0.989-5.431,3.158-3.879
		c-1.133,3.049-0.727,5.132,0,8.729C416.593,508.087,414.754,504.913,412.143,508.966z"/>
	<path fill-rule="evenodd" clip-rule="evenodd" d="M294.167,554.547c1.186-3.739,4.083,3.736,5.268,0
		c1.629,1.409,2.211,3.781,2.107,6.787C298.87,559.27,297.932,555.604,294.167,554.547z"/>
	<path fill-rule="evenodd" clip-rule="evenodd" fill="#FFFFFF" d="M318.394,560.366c3.23,0.95-1.21,2.588-1.053,3.88
		c0.312,0.861,2.848,4.245,3.159,1.937c2.839,1.148-0.004,5.058,0,6.79c-0.845-0.513-1.708-1.011-3.159-0.972
		C317.982,566.396,315.096,563.521,318.394,560.366z"/>
	<path fill-rule="evenodd" clip-rule="evenodd" fill="#FFFFFF" d="M356.316,563.274c-2.403-0.272-3.959,0.231-4.214,1.94
		c-3.089-0.822,0.63-3.123,0-4.849c3.925-1.029,3.4,2.041,5.266,2.908C357.167,564.373,356.312,563.812,356.316,563.274z"/>
	<path fill-rule="evenodd" clip-rule="evenodd" fill="#FFFFFF" d="M344.729,577.82c-1.657-2.389-5.433-7.877-7.374-6.788
		c-2.673-1.594,0.632-5.806,2.106-6.786c2.644,3.705,5.679,7.057,8.426,10.667c-1.847,1.53-2.184,4.453-5.264,4.848
		C342.235,578.111,343.442,577.931,344.729,577.82z"/>
	<path fill-rule="evenodd" clip-rule="evenodd" d="M286.793,567.153c2.486,0.822-2.901,2.39-1.053,5.819
		c-3.776-1.277-0.331-3.183-2.105-5.819c0.851,0.185,1.046,0.975,2.105,0.969C286.637,568.303,286.735,567.746,286.793,567.153z"/>
	<path fill-rule="evenodd" clip-rule="evenodd" fill="#FFFFFF" d="M327.875,572.973c1.195,0.184,0.586,0.972,0,0.969
		c0.352,2.263,1.08,4.178,3.16,4.851c-4.904,0.986,3.951,6.518-3.16,6.787c-0.152-4.062-4.429-4.329-3.159-9.698
		c1.142,0.241,0.714,1.93,2.106,1.939c2.865-0.886-2.806-1.803-1.054-4.848C326.705,573.568,327.65,574.146,327.875,572.973z"/>
	<path fill-rule="evenodd" clip-rule="evenodd" d="M265.728,581.699c0.466-1.408,0.924,0.099,2.106,0
		c2.714-0.231-1.447-1.667,0-3.879c1.99,0.11,0.73,3.208,3.159,2.912c0.323,2.234-3.043,1.075-3.159,2.907
		C266.69,583.4,267.119,581.712,265.728,581.699z"/>
	<path fill-rule="evenodd" clip-rule="evenodd" fill="#FFFFFF" d="M297.329,581.699c6.326,2.107,3.415,10.185-1.054,12.606
		C298.498,593.396,292.505,584.831,297.329,581.699z"/>
	<path fill-rule="evenodd" clip-rule="evenodd" d="M264.674,589.459c0.764-2.967-1.818-2.853-1.054-5.819
		c3.195-0.031,2.625,3.402,3.16,5.819c-1.801-0.043-2.728,0.721-3.16,1.939C262.146,591.057,263.529,589.69,264.674,589.459z"/>
	<path fill-rule="evenodd" clip-rule="evenodd" fill="#FFFFFF" d="M286.793,596.246c-0.701,0-1.406,0-2.107,0
		c-0.273,2.841,2.384,2.981,2.107,5.819c1.829-2.407,2.723-1.586,1.054,0.971c-3.444-1.032-3.166-5.491-6.32-6.79
		c0.583-0.608,4.279-2.93,1.054-3.877c3.11-3.424,2.013,5.19,6.321,3.877c-0.559,0.782-1.1,1.575-1.055,2.911
		C286.613,599.001,286.959,597.388,286.793,596.246z"/>
	<path fill-rule="evenodd" clip-rule="evenodd" d="M250.98,594.306c3.904,0.324,2.317,10.75,1.053,12.609
		C245.289,602.538,253.556,596.532,250.98,594.306z"/>
	<path fill-rule="evenodd" clip-rule="evenodd" fill="#FFFFFF" d="M195.152,604.977c-1.414,0.638-1.962,2.07-2.106,3.879
		c0.781-1.262-4.357-3.192-6.32-6.79c5.922,0.235,6.824,1.332,9.479,2.911C196.005,606.075,195.148,605.514,195.152,604.977z"/>
	<path fill-rule="evenodd" clip-rule="evenodd" fill="#FFFFFF" d="M182.512,609.823c-0.845-3.363,1.568-3.727,1.053-6.787
		c2.469,0.758,4.26,4.691,2.107,6.787c0.029,0.945,1.289,0.755,2.106,0.973C186.199,614,185.204,608.779,182.512,609.823z"/>
	<path fill-rule="evenodd" clip-rule="evenodd" fill="#FFFFFF" d="M373.167,795.054c0.367-0.034-3.582,20.41-3.157,8.73
		C370.798,800.631,371.917,797.781,373.167,795.054z"/>
	<path fill-rule="evenodd" clip-rule="evenodd" fill="#FFFFFF" d="M423.73,806.691c3.15,9.701-4.165,18.139-10.534,22.305
		C415.604,824.415,424.116,817.074,423.73,806.691z"/>
	<path fill-rule="evenodd" clip-rule="evenodd" fill="#FFFFFF" d="M359.476,535.15c2.391,1.032,0.401,6.097,1.054,8.728
		c4.115-0.914,0.894-4.891,1.051-7.756c2.771-0.29,0.831,3.76,4.214,2.908c-1.293,4.545-0.291,10.525-2.105,11.638
		c-1.994,1.559-5.347-0.827-3.16,3.879c-0.94-0.598-1.885-1.173-2.107,0C357.145,543.921,355.439,545.414,359.476,535.15z"/>
	<path fill-rule="evenodd" clip-rule="evenodd" fill="#FFFFFF" d="M349.995,552.607c4.215,4.624-0.201,9.326-2.108,13.575
		c-5.191-2.716-3.053-10.64,2.108-11.636C349.995,553.899,349.995,553.252,349.995,552.607z"/>
</g>
</svg>
