<svg xmlns="http://www.w3.org/2000/svg" width="545.5" height="349.5" viewBox="0 -249.5 545.5 349.5" enable-background="new 0 -249.5 545.5 349.5"><path stroke="#000" stroke-width="5" stroke-miterlimit="10" d="M97.421 27.277v-13.432c0-11.322-9.21-20.533-20.533-20.533-11.321 0-20.533 9.211-20.533 20.533v13.432h-12.605v46.971h66.276v-46.971h-12.605zm-38.817-13.432c0-10.081 8.204-18.283 18.283-18.283 10.082 0 18.283 8.202 18.283 18.283v13.432h-36.566v-13.432zm49.171 58.153h-61.774v-42.471h61.774v42.471z"/><path stroke="#000" stroke-width="2" stroke-miterlimit="10" d="M448.613 76.998c-.478 0-.947-.16-1.333-.475l-22.22-18.064h-43.478c-1.164 0-2.107-.957-2.107-2.118v-45.128c0-1.166.943-2.109 2.107-2.109h67.031c1.161 0 2.104.939 2.104 2.109v45.127c0 1.161-.943 2.118-2.104 2.118h-4.646l6.507 15.424c.168.297.256.645.256 1.01 0 1.162-.943 2.105-2.109 2.105h-.008zm-64.923-22.758h42.128c.481 0 .96.16 1.337.471l16.227 13.209-4.533-10.762c-.276-.649-.205-1.392.18-1.986.395-.592 1.05-.939 1.762-.939h5.71v-40.913h-62.81v40.92z"/><path d="M299.199 43.052l23.848-23.845c1.683-1.682 1.683-4.417 0-6.091-1.684-1.683-4.409-1.683-6.094 0l-23.846 23.844-23.845-23.845c-1.682-1.683-4.409-1.683-6.092 0-1.684 1.674-1.684 4.409 0 6.091l23.847 23.845-23.847 23.842c-1.684 1.683-1.684 4.427 0 6.093 1.683 1.683 4.41 1.683 6.092 0l23.845-23.846 23.846 23.846c1.685 1.683 4.41 1.683 6.094 0 1.683-1.666 1.683-4.41 0-6.093l-23.848-23.841z"/><path stroke="#000" stroke-width="2" stroke-miterlimit="10" d="M191.341 2.736c-22.079 0-40.04 14.736-40.04 32.862 0 8.541 4.121 16.801 11.373 22.917-1.644 3.729-3.837 7.256-6.541 10.477-.626.759-.766 1.803-.352 2.69.41.886 1.304 1.447 2.282 1.447 7.237 0 13.359-1.764 20.316-5.861 3.374.532 10.035 1.202 12.961 1.202 22.078 0 40.041-14.752 40.041-32.876.001-18.122-17.962-32.858-40.04-32.858zm0 60.69c-2.896 0-10.43-.777-12.978-1.275-.613-.108-1.255.006-1.791.325-4.698 2.873-8.798 4.517-13.188 5.217 1.892-2.866 3.465-5.892 4.691-9.044.406-1.054.074-2.245-.827-2.925-7.036-5.334-10.904-12.485-10.904-20.125 0-15.341 15.699-27.824 34.996-27.824 19.296 0 34.997 12.483 34.997 27.824.001 15.342-15.7 27.827-34.996 27.827z"/></svg>