<?xml version="1.0" encoding="utf-8"?>
<!-- Generator: Adobe Illustrator 15.0.2, SVG Export Plug-In . SVG Version: 6.00 Build 0)  -->
<!DOCTYPE svg PUBLIC "-//W3C//DTD SVG 1.1//EN" "http://www.w3.org/Graphics/SVG/1.1/DTD/svg11.dtd">
<svg version="1.1" id="Layer_1" xmlns="http://www.w3.org/2000/svg" xmlns:xlink="http://www.w3.org/1999/xlink" x="0px" y="0px"
	 width="545.5px" height="349.5px" viewBox="0 -249.5 545.5 349.5" enable-background="new 0 -249.5 545.5 349.5"
	 xml:space="preserve">
<path stroke="#000000" stroke-width="5" stroke-miterlimit="10" d="M97.421,27.277V13.845c0-11.322-9.21-20.533-20.533-20.533
	c-11.321,0-20.533,9.211-20.533,20.533v13.432H43.75v46.971h66.276V27.277H97.421z M58.604,13.845
	c0-10.081,8.204-18.283,18.283-18.283c10.082,0,18.283,8.202,18.283,18.283v13.432H58.604V13.845z M107.775,71.998H46.001V29.527
	h10.354h41.066h10.354V71.998L107.775,71.998z"/>
<g>
	<g>
		<path stroke="#000000" stroke-width="2" stroke-miterlimit="10" d="M448.613,76.998c-0.478,0-0.947-0.16-1.333-0.475
			L425.06,58.459h-43.478c-1.164,0-2.107-0.957-2.107-2.118V11.213c0-1.166,0.943-2.109,2.107-2.109h67.031
			c1.161,0,2.104,0.939,2.104,2.109v45.127c0,1.161-0.943,2.118-2.104,2.118h-4.646l6.507,15.424
			c0.168,0.297,0.256,0.645,0.256,1.01c0,1.162-0.943,2.105-2.109,2.105H448.613z M383.69,54.24h42.128
			c0.481,0,0.96,0.16,1.337,0.471l16.227,13.209l-4.533-10.762c-0.276-0.649-0.205-1.392,0.18-1.986
			c0.395-0.592,1.05-0.939,1.762-0.939h5.71V13.32h-62.81V54.24z"/>
	</g>
</g>
<path d="M299.199,43.052l23.848-23.845c1.683-1.682,1.683-4.417,0-6.091c-1.684-1.683-4.409-1.683-6.094,0L293.107,36.96
	l-23.845-23.845c-1.682-1.683-4.409-1.683-6.092,0c-1.684,1.674-1.684,4.409,0,6.091l23.847,23.845l-23.847,23.842
	c-1.684,1.683-1.684,4.427,0,6.093c1.683,1.683,4.41,1.683,6.092,0l23.845-23.846l23.846,23.846c1.685,1.683,4.41,1.683,6.094,0
	c1.683-1.666,1.683-4.41,0-6.093L299.199,43.052z"/>
<path stroke="#000000" stroke-width="2" stroke-miterlimit="10" d="M191.341,2.736c-22.079,0-40.04,14.736-40.04,32.862
	c0,8.541,4.121,16.801,11.373,22.917c-1.644,3.729-3.837,7.256-6.541,10.477c-0.626,0.759-0.766,1.803-0.352,2.69
	c0.41,0.886,1.304,1.447,2.282,1.447c7.237,0,13.359-1.764,20.316-5.861c3.374,0.532,10.035,1.202,12.961,1.202
	c22.078,0,40.041-14.752,40.041-32.876C231.382,17.472,213.419,2.736,191.341,2.736z M191.341,63.426
	c-2.896,0-10.43-0.777-12.978-1.275c-0.613-0.108-1.255,0.006-1.791,0.325c-4.698,2.873-8.798,4.517-13.188,5.217
	c1.892-2.866,3.465-5.892,4.691-9.044c0.406-1.054,0.074-2.245-0.827-2.925c-7.036-5.334-10.904-12.485-10.904-20.125
	c0-15.341,15.699-27.824,34.996-27.824c19.296,0,34.997,12.483,34.997,27.824C226.338,50.941,210.637,63.426,191.341,63.426z"/>
</svg>
